<svg width="738" height="114" viewBox="0 0 738 114" fill="none" xmlns="http://www.w3.org/2000/svg">
<path d="M0.48 111H50.88C76.8 111 92.64 100.488 92.64 83.208C92.64 67.08 80.112 56.136 59.52 54.84V53.4C72.912 50.376 81.12 41.304 81.12 30.504C81.12 15.24 66.288 5.88 42.24 5.88H0.48V11.64H12L14.88 14.52V102.36L12 105.24H0.48V111ZM29.28 52.68V14.52L32.16 11.64H42.24C56.928 11.64 65.28 19.128 65.28 32.376C65.28 45.336 56.928 52.68 42.24 52.68H29.28ZM32.16 105.24L29.28 102.36V58.44H50.88C67.44 58.44 76.8 66.792 76.8 81.48C76.8 96.744 67.44 105.24 50.88 105.24H32.16ZM135.154 112.44C157.618 112.44 172.594 97.608 172.594 74.28C172.594 50.952 157.618 36.12 135.154 36.12C112.69 36.12 97.7137 50.952 97.7137 74.28C97.7137 97.608 112.69 112.44 135.154 112.44ZM135.154 105.96C120.466 105.96 112.114 95.016 112.114 74.28C112.114 53.544 120.466 42.6 135.154 42.6C149.842 42.6 158.194 53.544 158.194 74.28C158.194 95.016 149.842 105.96 135.154 105.96ZM214.371 112.44C236.835 112.44 251.811 97.608 251.811 74.28C251.811 50.952 236.835 36.12 214.371 36.12C191.907 36.12 176.931 50.952 176.931 74.28C176.931 97.608 191.907 112.44 214.371 112.44ZM214.371 105.96C199.683 105.96 191.331 95.016 191.331 74.28C191.331 53.544 199.683 42.6 214.371 42.6C229.059 42.6 237.411 53.544 237.411 74.28C237.411 95.016 229.059 105.96 214.371 105.96ZM251.827 111H331.028V105.24H321.092L296.899 63.48L316.627 44.76H328.147V39H276.307V0.119994C269.107 3.71999 259.891 5.88 251.827 5.88V11.64H263.347V102.36L260.467 105.24H251.827V111ZM276.307 74.568V44.76H303.811L305.251 47.64L276.307 74.568ZM279.187 105.24L276.307 102.36V82.632L287.827 71.688L304.531 102.36L303.091 105.24H279.187ZM417.668 113.88C440.42 113.88 456.26 98.76 461.876 71.4L456.692 70.104C452.084 94.44 439.268 106.824 419.972 106.824C396.068 106.824 382.676 90.696 382.676 58.44C382.676 26.184 395.78 8.04 418.964 8.04C436.1 8.04 447.332 21.288 454.1 47.928L458.996 46.92L451.796 5.88H448.916C433.94 5.88 429.764 2.99999 417.956 2.99999C384.26 2.99999 365.396 23.016 365.396 58.44C365.396 93.864 384.26 113.88 417.668 113.88ZM503.676 112.44C526.14 112.44 541.116 97.608 541.116 74.28C541.116 50.952 526.14 36.12 503.676 36.12C481.212 36.12 466.236 50.952 466.236 74.28C466.236 97.608 481.212 112.44 503.676 112.44ZM503.676 105.96C488.988 105.96 480.636 95.016 480.636 74.28C480.636 53.544 488.988 42.6 503.676 42.6C518.364 42.6 526.716 53.544 526.716 74.28C526.716 95.016 518.364 105.96 503.676 105.96ZM571.44 111H582.96L607.44 44.76H614.64V39H536.88V44.76H545.52L571.44 111ZM579.648 98.04L561.36 47.64L564.24 44.76H596.208L599.088 47.64L581.088 98.04H579.648ZM643.734 112.44C663.03 112.44 674.55 99.336 678.006 79.32L672.966 78.312C669.798 93.432 660.294 105.24 647.334 105.24C633.942 105.24 624.582 92.712 624.582 75C624.582 74.424 624.582 73.128 624.726 72.12H672.246L676.566 67.8C676.566 48.216 664.47 36.12 645.318 36.12C624.15 36.12 610.326 51.096 610.326 75.432C610.326 97.752 623.43 112.44 643.734 112.44ZM625.302 66.36C627.318 50.376 635.526 42.024 645.75 42.024C655.686 42.024 662.166 49.656 662.166 63.48L659.286 66.36H625.302ZM680.211 111H730.611V105.24H707.571L704.691 102.36V73.56C704.691 59.304 711.747 50.52 723.411 50.52H734.931L737.811 36.12L726.291 36.84C716.787 37.416 708.579 44.328 704.691 54.84H703.251V36.12C696.051 39.72 687.411 41.88 680.211 41.88V47.64H691.731V102.36L688.851 105.24H680.211V111Z" fill="#B9BDC5" fill-opacity="0.05"/>
<path d="M0.48 111H-0.52V112H0.48V111ZM59.52 54.84H58.52V55.779L59.4572 55.838L59.52 54.84ZM59.52 53.4L59.2997 52.4246L58.52 52.6006V53.4H59.52ZM0.48 5.88V4.88H-0.52V5.88H0.48ZM0.48 11.64H-0.52V12.64H0.48V11.64ZM12 11.64L12.7071 10.9329L12.4142 10.64H12V11.64ZM14.88 14.52H15.88V14.1058L15.5871 13.8129L14.88 14.52ZM14.88 102.36L15.5871 103.067L15.88 102.774V102.36H14.88ZM12 105.24V106.24H12.4142L12.7071 105.947L12 105.24ZM0.48 105.24V104.24H-0.52V105.24H0.48ZM29.28 52.68H28.28V53.68H29.28V52.68ZM29.28 14.52L28.5729 13.8129L28.28 14.1058V14.52H29.28ZM32.16 11.64V10.64H31.7458L31.4529 10.9329L32.16 11.64ZM32.16 105.24L31.4529 105.947L31.7458 106.24H32.16V105.24ZM29.28 102.36H28.28V102.774L28.5729 103.067L29.28 102.36ZM29.28 58.44V57.44H28.28V58.44H29.28ZM0.48 112H50.88V110H0.48V112ZM50.88 112C63.9561 112 74.6132 109.351 82.0337 104.417C89.4954 99.4547 93.64 92.2028 93.64 83.208H91.64C91.64 91.4932 87.8647 98.1373 80.9263 102.751C73.9468 107.393 63.7239 110 50.88 110V112ZM93.64 83.208C93.64 74.8615 90.3876 67.8138 84.4546 62.7043C78.5411 57.6115 70.033 54.4997 59.5828 53.842L59.4572 55.838C69.599 56.4763 77.651 59.4844 83.1494 64.2197C88.6284 68.9382 91.64 75.4265 91.64 83.208H93.64ZM60.52 54.84V53.4H58.52V54.84H60.52ZM59.7403 54.3754C73.4556 51.2784 82.12 41.895 82.12 30.504H80.12C80.12 40.713 72.3684 49.4736 59.2997 52.4246L59.7403 54.3754ZM82.12 30.504C82.12 22.4916 78.2031 16.0332 71.2327 11.6229C64.3029 7.23841 54.3741 4.88 42.24 4.88V6.88C54.1539 6.88 63.6651 9.20159 70.1633 13.3131C76.6209 17.3988 80.12 23.2524 80.12 30.504H82.12ZM42.24 4.88H0.48V6.88H42.24V4.88ZM-0.52 5.88V11.64H1.48V5.88H-0.52ZM0.48 12.64H12V10.64H0.48V12.64ZM11.2929 12.3471L14.1729 15.2271L15.5871 13.8129L12.7071 10.9329L11.2929 12.3471ZM13.88 14.52V102.36H15.88V14.52H13.88ZM14.1729 101.653L11.2929 104.533L12.7071 105.947L15.5871 103.067L14.1729 101.653ZM12 104.24H0.48V106.24H12V104.24ZM-0.52 105.24V111H1.48V105.24H-0.52ZM30.28 52.68V14.52H28.28V52.68H30.28ZM29.9871 15.2271L32.8671 12.3471L31.4529 10.9329L28.5729 13.8129L29.9871 15.2271ZM32.16 12.64H42.24V10.64H32.16V12.64ZM42.24 12.64C49.4249 12.64 54.9152 14.4712 58.5994 17.7836C62.2678 21.0818 64.28 25.9694 64.28 32.376H66.28C66.28 25.5346 64.1162 20.0542 59.9366 16.2964C55.7728 12.5528 49.7431 10.64 42.24 10.64V12.64ZM64.28 32.376C64.28 38.6316 62.2725 43.4093 58.6071 46.6376C54.9228 49.8824 49.4294 51.68 42.24 51.68V53.68C49.7386 53.68 55.7652 51.8056 59.9289 48.1384C64.1115 44.4547 66.28 39.0804 66.28 32.376H64.28ZM42.24 51.68H29.28V53.68H42.24V51.68ZM32.8671 104.533L29.9871 101.653L28.5729 103.067L31.4529 105.947L32.8671 104.533ZM30.28 102.36V58.44H28.28V102.36H30.28ZM29.28 59.44H50.88V57.44H29.28V59.44ZM50.88 59.44C59.0034 59.44 65.2152 61.4885 69.3853 65.1991C73.538 68.8942 75.8 74.3568 75.8 81.48H77.8C77.8 73.9152 75.382 67.8578 70.7148 63.7049C66.0649 59.5675 59.3166 57.44 50.88 57.44V59.44ZM75.8 81.48C75.8 88.9027 73.5306 94.5468 69.3752 98.346C65.2062 102.158 58.9995 104.24 50.88 104.24V106.24C59.3205 106.24 66.0738 104.074 70.7248 99.822C75.3894 95.5572 77.8 89.3213 77.8 81.48H75.8ZM50.88 104.24H32.16V106.24H50.88V104.24ZM135.154 113.44C146.611 113.44 156.241 109.653 163.009 102.811C169.776 95.9699 173.594 86.1616 173.594 74.28H171.594C171.594 85.7264 167.924 94.9981 161.587 101.405C155.25 107.811 146.161 111.44 135.154 111.44V113.44ZM173.594 74.28C173.594 62.3984 169.776 52.5901 163.009 45.7488C156.241 38.9068 146.611 35.12 135.154 35.12V37.12C146.161 37.12 155.25 40.7492 161.587 47.1552C167.924 53.5619 171.594 62.8336 171.594 74.28H173.594ZM135.154 35.12C123.697 35.12 114.066 38.9068 107.299 45.7488C100.532 52.5901 96.7137 62.3984 96.7137 74.28H98.7137C98.7137 62.8336 102.384 53.5619 108.721 47.1552C115.057 40.7492 124.147 37.12 135.154 37.12V35.12ZM96.7137 74.28C96.7137 86.1616 100.532 95.9699 107.299 102.811C114.066 109.653 123.697 113.44 135.154 113.44V111.44C124.147 111.44 115.057 107.811 108.721 101.405C102.384 94.9981 98.7137 85.7264 98.7137 74.28H96.7137ZM135.154 104.96C128.089 104.96 122.645 102.345 118.931 97.303C115.183 92.2138 113.114 84.5364 113.114 74.28H111.114C111.114 84.7596 113.221 92.9222 117.321 98.489C121.455 104.103 127.531 106.96 135.154 106.96V104.96ZM113.114 74.28C113.114 64.0236 115.183 56.3462 118.931 51.257C122.645 46.2147 128.089 43.6 135.154 43.6V41.6C127.531 41.6 121.455 44.4573 117.321 50.071C113.221 55.6378 111.114 63.8004 111.114 74.28H113.114ZM135.154 43.6C142.219 43.6 147.663 46.2147 151.377 51.257C155.125 56.3462 157.194 64.0236 157.194 74.28H159.194C159.194 63.8004 157.087 55.6378 152.987 50.071C148.853 44.4573 142.777 41.6 135.154 41.6V43.6ZM157.194 74.28C157.194 84.5364 155.125 92.2138 151.377 97.303C147.663 102.345 142.219 104.96 135.154 104.96V106.96C142.777 106.96 148.853 104.103 152.987 98.489C157.087 92.9222 159.194 84.7596 159.194 74.28H157.194ZM214.371 113.44C225.828 113.44 235.458 109.653 242.226 102.811C248.993 95.9699 252.811 86.1616 252.811 74.28H250.811C250.811 85.7264 247.141 94.9981 240.804 101.405C234.467 107.811 225.378 111.44 214.371 111.44V113.44ZM252.811 74.28C252.811 62.3984 248.993 52.5901 242.226 45.7488C235.458 38.9068 225.828 35.12 214.371 35.12V37.12C225.378 37.12 234.467 40.7492 240.804 47.1552C247.141 53.5619 250.811 62.8336 250.811 74.28H252.811ZM214.371 35.12C202.914 35.12 193.283 38.9068 186.516 45.7488C179.749 52.5901 175.931 62.3984 175.931 74.28H177.931C177.931 62.8336 181.601 53.5619 187.938 47.1552C194.274 40.7492 203.364 37.12 214.371 37.12V35.12ZM175.931 74.28C175.931 86.1616 179.749 95.9699 186.516 102.811C193.283 109.653 202.914 113.44 214.371 113.44V111.44C203.364 111.44 194.274 107.811 187.938 101.405C181.601 94.9981 177.931 85.7264 177.931 74.28H175.931ZM214.371 104.96C207.306 104.96 201.861 102.345 198.148 97.303C194.4 92.2138 192.331 84.5364 192.331 74.28H190.331C190.331 84.7596 192.438 92.9222 196.537 98.489C200.672 104.103 206.748 106.96 214.371 106.96V104.96ZM192.331 74.28C192.331 64.0236 194.4 56.3462 198.148 51.257C201.861 46.2147 207.306 43.6 214.371 43.6V41.6C206.748 41.6 200.672 44.4573 196.537 50.071C192.438 55.6378 190.331 63.8004 190.331 74.28H192.331ZM214.371 43.6C221.436 43.6 226.88 46.2147 230.593 51.257C234.342 56.3462 236.411 64.0236 236.411 74.28H238.411C238.411 63.8004 236.304 55.6378 232.204 50.071C228.069 44.4573 221.994 41.6 214.371 41.6V43.6ZM236.411 74.28C236.411 84.5364 234.342 92.2138 230.593 97.303C226.88 102.345 221.436 104.96 214.371 104.96V106.96C221.994 106.96 228.069 104.103 232.204 98.489C236.304 92.9222 238.411 84.7596 238.411 74.28H236.411ZM251.827 111H250.827V112H251.827V111ZM331.027 111V112H332.027V111H331.027ZM331.027 105.24H332.027V104.24H331.027V105.24ZM321.091 105.24L320.226 105.741L320.515 106.24H321.091V105.24ZM296.9 63.48L296.211 62.7546L295.638 63.2981L296.034 63.9813L296.9 63.48ZM316.628 44.76V43.76H316.229L315.939 44.0346L316.628 44.76ZM328.147 44.76V45.76H329.147V44.76H328.147ZM328.147 39H329.147V38H328.147V39ZM276.307 39H275.307V40H276.307V39ZM276.307 0.119995H277.307V-1.49804L275.86 -0.774433L276.307 0.119995ZM251.827 5.88V4.88H250.827V5.88H251.827ZM251.827 11.64H250.827V12.64H251.827V11.64ZM263.348 11.64H264.348V10.64H263.348V11.64ZM263.348 102.36L264.055 103.067L264.348 102.774V102.36H263.348ZM260.467 105.24V106.24H260.882L261.175 105.947L260.467 105.24ZM251.827 105.24V104.24H250.827V105.24H251.827ZM276.307 74.568H275.307V76.8642L276.989 75.3001L276.307 74.568ZM276.307 44.76V43.76H275.307V44.76H276.307ZM303.811 44.76L304.706 44.3128L304.43 43.76H303.811V44.76ZM305.251 47.64L305.933 48.3721L306.481 47.8623L306.146 47.1928L305.251 47.64ZM279.188 105.24L278.48 105.947L278.773 106.24H279.188V105.24ZM276.307 102.36H275.307V102.774L275.6 103.067L276.307 102.36ZM276.307 82.632L275.619 81.907L275.307 82.2027V82.632H276.307ZM287.827 71.688L288.706 71.2097L288.083 70.0661L287.139 70.963L287.827 71.688ZM304.531 102.36L305.426 102.807L305.659 102.34L305.41 101.882L304.531 102.36ZM303.091 105.24V106.24H303.71L303.986 105.687L303.091 105.24ZM251.827 112H331.027V110H251.827V112ZM332.027 111V105.24H330.027V111H332.027ZM331.027 104.24H321.091V106.24H331.027V104.24ZM321.957 104.739L297.765 62.9787L296.034 63.9813L320.226 105.741L321.957 104.739ZM297.588 64.2054L317.316 45.4854L315.939 44.0346L296.211 62.7546L297.588 64.2054ZM316.628 45.76H328.147V43.76H316.628V45.76ZM329.147 44.76V39H327.147V44.76H329.147ZM328.147 38H276.307V40H328.147V38ZM277.307 39V0.119995H275.307V39H277.307ZM275.86 -0.774433C268.8 2.75554 259.738 4.88 251.827 4.88V6.88C260.045 6.88 269.415 4.68444 276.755 1.01442L275.86 -0.774433ZM250.827 5.88V11.64H252.827V5.88H250.827ZM251.827 12.64H263.348V10.64H251.827V12.64ZM262.348 11.64V102.36H264.348V11.64H262.348ZM262.64 101.653L259.76 104.533L261.175 105.947L264.055 103.067L262.64 101.653ZM260.467 104.24H251.827V106.24H260.467V104.24ZM250.827 105.24V111H252.827V105.24H250.827ZM277.307 74.568V44.76H275.307V74.568H277.307ZM276.307 45.76H303.811V43.76H276.307V45.76ZM302.917 45.2072L304.357 48.0872L306.146 47.1928L304.706 44.3128L302.917 45.2072ZM304.57 46.9079L275.626 73.8359L276.989 75.3001L305.933 48.3721L304.57 46.9079ZM279.895 104.533L277.015 101.653L275.6 103.067L278.48 105.947L279.895 104.533ZM277.307 102.36V82.632H275.307V102.36H277.307ZM276.996 83.357L288.516 72.413L287.139 70.963L275.619 81.907L276.996 83.357ZM286.949 72.1663L303.653 102.838L305.41 101.882L288.706 71.2097L286.949 72.1663ZM303.637 101.913L302.197 104.793L303.986 105.687L305.426 102.807L303.637 101.913ZM303.091 104.24H279.188V106.24H303.091V104.24ZM461.876 71.4L462.856 71.6011L463.049 70.6623L462.119 70.4299L461.876 71.4ZM456.692 70.104L456.935 69.1339L455.907 68.8769L455.71 69.918L456.692 70.104ZM454.1 47.928L453.131 48.1742L453.366 49.1001L454.302 48.9075L454.1 47.928ZM458.996 46.92L459.198 47.8995L460.149 47.7036L459.981 46.7472L458.996 46.92ZM451.796 5.88L452.781 5.7072L452.636 4.88H451.796V5.88ZM417.668 114.88C429.283 114.88 439.185 111.013 446.891 103.622C454.581 96.2442 460.019 85.4199 462.856 71.6011L460.897 71.1989C458.117 84.7401 452.827 95.1558 445.506 102.178C438.2 109.187 428.806 112.88 417.668 112.88V114.88ZM462.119 70.4299L456.935 69.1339L456.45 71.0741L461.634 72.3701L462.119 70.4299ZM455.71 69.918C453.429 81.9606 449.139 90.9292 443.136 96.8798C437.153 102.811 429.389 105.824 419.972 105.824V107.824C429.852 107.824 438.143 104.645 444.544 98.3002C450.925 91.9748 455.347 82.5834 457.675 70.29L455.71 69.918ZM419.972 105.824C408.264 105.824 399.257 101.887 393.147 94.1102C387.004 86.292 383.676 74.4524 383.676 58.44H381.676C381.676 74.6836 385.045 87.036 391.574 95.3458C398.135 103.697 407.776 107.824 419.972 107.824V105.824ZM383.676 58.44C383.676 42.4259 386.932 30.0623 392.938 21.7286C398.909 13.4413 407.668 9.04 418.964 9.04V7.04C407.076 7.04 397.691 11.7107 391.315 20.5594C384.972 29.3617 381.676 42.1981 381.676 58.44H383.676ZM418.964 9.04C427.231 9.04 434.053 12.2178 439.667 18.6515C445.315 25.1245 449.765 34.9238 453.131 48.1742L455.069 47.6818C451.668 34.2922 447.117 24.1475 441.174 17.3365C435.196 10.4862 427.833 7.04 418.964 7.04V9.04ZM454.302 48.9075L459.198 47.8995L458.795 45.9405L453.899 46.9485L454.302 48.9075ZM459.981 46.7472L452.781 5.7072L450.811 6.0528L458.011 47.0928L459.981 46.7472ZM451.796 4.88H448.916V6.88H451.796V4.88ZM448.916 4.88C441.505 4.88 436.777 4.16902 432.41 3.45317C428.023 2.73401 423.952 1.99999 417.956 1.99999V3.99999C423.768 3.99999 427.689 4.70598 432.086 5.42682C436.504 6.15098 441.352 6.88 448.916 6.88V4.88ZM417.956 1.99999C400.909 1.99999 387.477 7.06832 378.314 16.7486C369.159 26.4206 364.396 40.5583 364.396 58.44H366.396C366.396 40.8977 371.066 27.3154 379.767 18.1234C388.46 8.93967 401.308 3.99999 417.956 3.99999V1.99999ZM364.396 58.44C364.396 76.3217 369.159 90.4584 378.277 100.13C387.403 109.81 400.762 114.88 417.668 114.88V112.88C401.166 112.88 388.39 107.942 379.732 98.758C371.066 89.5656 366.396 75.9823 366.396 58.44H364.396ZM503.676 113.44C515.133 113.44 524.763 109.653 531.531 102.811C538.298 95.9699 542.116 86.1616 542.116 74.28H540.116C540.116 85.7264 536.446 94.9981 530.109 101.405C523.772 107.811 514.683 111.44 503.676 111.44V113.44ZM542.116 74.28C542.116 62.3984 538.298 52.5901 531.531 45.7488C524.763 38.9068 515.133 35.12 503.676 35.12V37.12C514.683 37.12 523.772 40.7492 530.109 47.1552C536.446 53.5619 540.116 62.8336 540.116 74.28H542.116ZM503.676 35.12C492.219 35.12 482.588 38.9068 475.821 45.7488C469.054 52.5901 465.236 62.3984 465.236 74.28H467.236C467.236 62.8336 470.906 53.5619 477.243 47.1552C483.579 40.7492 492.669 37.12 503.676 37.12V35.12ZM465.236 74.28C465.236 86.1616 469.054 95.9699 475.821 102.811C482.588 109.653 492.219 113.44 503.676 113.44V111.44C492.669 111.44 483.579 107.811 477.243 101.405C470.906 94.9981 467.236 85.7264 467.236 74.28H465.236ZM503.676 104.96C496.611 104.96 491.166 102.345 487.453 97.303C483.705 92.2138 481.636 84.5364 481.636 74.28H479.636C479.636 84.7596 481.743 92.9222 485.842 98.489C489.977 104.103 496.053 106.96 503.676 106.96V104.96ZM481.636 74.28C481.636 64.0236 483.705 56.3462 487.453 51.257C491.166 46.2147 496.611 43.6 503.676 43.6V41.6C496.053 41.6 489.977 44.4573 485.842 50.071C481.743 55.6378 479.636 63.8004 479.636 74.28H481.636ZM503.676 43.6C510.741 43.6 516.185 46.2147 519.898 51.257C523.647 56.3462 525.716 64.0236 525.716 74.28H527.716C527.716 63.8004 525.609 55.6378 521.509 50.071C517.374 44.4573 511.299 41.6 503.676 41.6V43.6ZM525.716 74.28C525.716 84.5364 523.647 92.2138 519.898 97.303C516.185 102.345 510.741 104.96 503.676 104.96V106.96C511.299 106.96 517.374 104.103 521.509 98.489C525.609 92.9222 527.716 84.7596 527.716 74.28H525.716ZM571.44 111L570.509 111.364L570.757 112H571.44V111ZM582.96 111V112H583.657L583.898 111.347L582.96 111ZM607.44 44.76V43.76H606.743L606.502 44.4133L607.44 44.76ZM614.64 44.76V45.76H615.64V44.76H614.64ZM614.64 39H615.64V38H614.64V39ZM536.88 39V38H535.88V39H536.88ZM536.88 44.76H535.88V45.76H536.88V44.76ZM545.52 44.76L546.451 44.3956L546.203 43.76H545.52V44.76ZM579.648 98.04L578.708 98.3811L578.947 99.04H579.648V98.04ZM561.36 47.64L560.653 46.9329L560.203 47.3829L560.42 47.9811L561.36 47.64ZM564.24 44.76V43.76H563.826L563.533 44.0529L564.24 44.76ZM596.208 44.76L596.915 44.0529L596.622 43.76H596.208V44.76ZM599.088 47.64L600.03 47.9763L600.243 47.3804L599.795 46.9329L599.088 47.64ZM581.088 98.04V99.04H581.793L582.03 98.3763L581.088 98.04ZM571.44 112H582.96V110H571.44V112ZM583.898 111.347L608.378 45.1066L606.502 44.4133L582.022 110.653L583.898 111.347ZM607.44 45.76H614.64V43.76H607.44V45.76ZM615.64 44.76V39H613.64V44.76H615.64ZM614.64 38H536.88V40H614.64V38ZM535.88 39V44.76H537.88V39H535.88ZM536.88 45.76H545.52V43.76H536.88V45.76ZM544.589 45.1244L570.509 111.364L572.371 110.636L546.451 44.3956L544.589 45.1244ZM580.588 97.6989L562.3 47.2989L560.42 47.9811L578.708 98.3811L580.588 97.6989ZM562.067 48.3471L564.947 45.4671L563.533 44.0529L560.653 46.9329L562.067 48.3471ZM564.24 45.76H596.208V43.76H564.24V45.76ZM595.501 45.4671L598.381 48.3471L599.795 46.9329L596.915 44.0529L595.501 45.4671ZM598.146 47.3037L580.146 97.7037L582.03 98.3763L600.03 47.9763L598.146 47.3037ZM581.088 97.04H579.648V99.04H581.088V97.04ZM678.006 79.32L678.991 79.4901L679.157 78.5304L678.202 78.3394L678.006 79.32ZM672.966 78.312L673.162 77.3314L672.19 77.1371L671.987 78.1069L672.966 78.312ZM624.726 72.12V71.12H623.858L623.736 71.9786L624.726 72.12ZM672.246 72.12V73.12H672.66L672.953 72.8271L672.246 72.12ZM676.566 67.8L677.273 68.5071L677.566 68.2142V67.8H676.566ZM625.302 66.36L624.309 66.2349L624.168 67.36H625.302V66.36ZM662.166 63.48L662.873 64.1871L663.166 63.8942V63.48H662.166ZM659.286 66.36V67.36H659.7L659.993 67.0671L659.286 66.36ZM643.734 113.44C653.628 113.44 661.594 110.072 667.52 104.09C673.428 98.1264 677.239 89.6365 678.991 79.4901L677.02 79.1499C675.316 89.0195 671.64 97.0896 666.099 102.682C660.577 108.256 653.135 111.44 643.734 111.44V113.44ZM678.202 78.3394L673.162 77.3314L672.769 79.2926L677.81 80.3006L678.202 78.3394ZM671.987 78.1069C668.858 93.0421 659.585 104.24 647.334 104.24V106.24C661.003 106.24 670.738 93.8219 673.944 78.5171L671.987 78.1069ZM647.334 104.24C640.982 104.24 635.579 101.281 631.735 96.1616C627.878 91.0248 625.582 83.6893 625.582 75H623.582C623.582 84.0227 625.965 91.8072 630.136 97.3624C634.32 102.935 640.293 106.24 647.334 106.24V104.24ZM625.582 75C625.582 74.41 625.583 73.1867 625.716 72.2614L623.736 71.9786C623.58 73.0693 623.582 74.4379 623.582 75H625.582ZM624.726 73.12H672.246V71.12H624.726V73.12ZM672.953 72.8271L677.273 68.5071L675.859 67.0929L671.539 71.4129L672.953 72.8271ZM677.566 67.8C677.566 57.8003 674.474 49.6079 668.834 43.9124C663.194 38.216 655.107 35.12 645.318 35.12V37.12C654.68 37.12 662.217 40.072 667.413 45.3196C672.61 50.5681 675.566 58.2157 675.566 67.8H677.566ZM645.318 35.12C634.485 35.12 625.454 38.9595 619.14 45.9814C612.836 52.9922 609.326 63.0789 609.326 75.432H611.326C611.326 63.4491 614.727 53.8798 620.627 47.3186C626.517 40.7685 634.982 37.12 645.318 37.12V35.12ZM609.326 75.432C609.326 86.7843 612.66 96.2923 618.672 102.975C624.694 109.668 633.327 113.44 643.734 113.44V111.44C633.836 111.44 625.765 107.868 620.159 101.637C614.543 95.3957 611.326 86.3997 611.326 75.432H609.326ZM626.294 66.4851C627.285 58.6291 629.785 52.7521 633.2 48.8572C636.598 44.9804 640.935 43.024 645.75 43.024V41.024C640.34 41.024 635.461 43.2436 631.696 47.5388C627.946 51.8158 625.335 58.1069 624.309 66.2349L626.294 66.4851ZM645.75 43.024C650.437 43.024 654.241 44.8108 656.898 48.1865C659.578 51.5909 661.166 56.7101 661.166 63.48H663.166C663.166 56.4259 661.514 50.8171 658.469 46.9495C655.402 43.0531 650.999 41.024 645.75 41.024V43.024ZM661.458 62.7729L658.578 65.6529L659.993 67.0671L662.873 64.1871L661.458 62.7729ZM659.286 65.36H625.302V67.36H659.286V65.36ZM680.211 111H679.211V112H680.211V111ZM730.611 111V112H731.611V111H730.611ZM730.611 105.24H731.611V104.24H730.611V105.24ZM707.571 105.24L706.864 105.947L707.156 106.24H707.571V105.24ZM704.691 102.36H703.691V102.774L703.984 103.067L704.691 102.36ZM734.931 50.52V51.52H735.75L735.911 50.7161L734.931 50.52ZM737.811 36.12L738.791 36.3161L739.046 35.0408L737.748 35.1219L737.811 36.12ZM726.291 36.84L726.351 37.8382L726.353 37.838L726.291 36.84ZM704.691 54.84V55.84H705.387L705.629 55.1869L704.691 54.84ZM703.251 54.84H702.251V55.84H703.251V54.84ZM703.251 36.12H704.251V34.502L702.803 35.2256L703.251 36.12ZM680.211 41.88V40.88H679.211V41.88H680.211ZM680.211 47.64H679.211V48.64H680.211V47.64ZM691.731 47.64H692.731V46.64H691.731V47.64ZM691.731 102.36L692.438 103.067L692.731 102.774V102.36H691.731ZM688.851 105.24V106.24H689.265L689.558 105.947L688.851 105.24ZM680.211 105.24V104.24H679.211V105.24H680.211ZM680.211 112H730.611V110H680.211V112ZM731.611 111V105.24H729.611V111H731.611ZM730.611 104.24H707.571V106.24H730.611V104.24ZM708.278 104.533L705.398 101.653L703.984 103.067L706.864 105.947L708.278 104.533ZM705.691 102.36V73.56H703.691V102.36H705.691ZM705.691 73.56C705.691 66.5847 707.418 61.0718 710.454 57.3234C713.469 53.6005 717.853 51.52 723.411 51.52V49.52C717.305 49.52 712.328 51.8315 708.9 56.0646C705.492 60.2722 703.691 66.2793 703.691 73.56H705.691ZM723.411 51.52H734.931V49.52H723.411V51.52ZM735.911 50.7161L738.791 36.3161L736.83 35.9239L733.95 50.3239L735.911 50.7161ZM737.748 35.1219L726.228 35.8419L726.353 37.838L737.873 37.118L737.748 35.1219ZM726.23 35.8418C716.243 36.4471 707.745 43.6991 703.753 54.4931L705.629 55.1869C709.412 44.9569 717.33 38.3849 726.351 37.8382L726.23 35.8418ZM704.691 53.84H703.251V55.84H704.691V53.84ZM704.251 54.84V36.12H702.251V54.84H704.251ZM702.803 35.2256C695.726 38.7644 687.238 40.88 680.211 40.88V42.88C687.583 42.88 696.376 40.6756 703.698 37.0144L702.803 35.2256ZM679.211 41.88V47.64H681.211V41.88H679.211ZM680.211 48.64H691.731V46.64H680.211V48.64ZM690.731 47.64V102.36H692.731V47.64H690.731ZM691.024 101.653L688.144 104.533L689.558 105.947L692.438 103.067L691.024 101.653ZM688.851 104.24H680.211V106.24H688.851V104.24ZM679.211 105.24V111H681.211V105.24H679.211Z" fill="#B9BDC5"/>
</svg>
