<svg width="675" height="297" viewBox="0 0 675 297" fill="none" xmlns="http://www.w3.org/2000/svg">
<path d="M58.912 113.88C81.664 113.88 97.504 98.76 103.12 71.4L97.936 70.104C93.328 94.44 80.512 106.824 61.216 106.824C37.312 106.824 23.92 90.696 23.92 58.44C23.92 26.184 37.024 8.04 60.208 8.04C77.344 8.04 88.576 21.288 95.344 47.928L100.24 46.92L93.04 5.88H90.16C75.184 5.88 71.008 2.99999 59.2 2.99999C25.504 2.99999 6.64 23.016 6.64 58.44C6.64 93.864 25.504 113.88 58.912 113.88ZM129.655 112.44C141.175 112.44 149.239 106.968 153.559 99.048H154.999V111H178.039V105.24H169.399L166.519 102.36V59.16C166.519 44.328 156.583 36.12 138.871 36.12C122.311 36.12 112.519 43.896 111.799 57.72L111.079 70.68L124.039 64.92V54.84C124.039 46.488 129.367 41.88 138.583 41.88C148.375 41.88 153.559 48.072 153.559 59.16V69.24L138.439 72.984C115.687 78.6 107.479 84.792 107.479 96.168C107.479 106.68 115.399 112.44 129.655 112.44ZM132.967 105.24C125.335 105.24 121.159 101.64 121.159 95.016C121.159 86.088 129.655 81.048 153.559 75.72V77.88C153.559 92.712 145.351 105.24 132.967 105.24ZM177.364 111H263.764V105.24H255.124L252.244 102.36V62.04C252.244 45.192 243.604 36.12 227.764 36.12C216.388 36.12 207.316 40.728 201.844 49.08H200.404V36.12C193.204 39.72 184.564 41.88 177.364 41.88V47.64H188.884V102.36L186.004 105.24H177.364V111ZM204.724 105.24L201.844 102.36V69.24C201.844 53.4 209.476 44.76 223.444 44.76C233.668 44.76 239.284 51.816 239.284 64.92V102.36L236.404 105.24H204.724ZM287.541 111H299.061L323.541 44.76H330.741V39H252.981V44.76H261.621L287.541 111ZM295.749 98.04L277.461 47.64L280.341 44.76H312.309L315.189 47.64L297.189 98.04H295.749ZM350.009 112.44C361.529 112.44 369.593 106.968 373.913 99.048H375.353V111H398.393V105.24H389.753L386.873 102.36V59.16C386.873 44.328 376.937 36.12 359.225 36.12C342.665 36.12 332.873 43.896 332.153 57.72L331.433 70.68L344.393 64.92V54.84C344.393 46.488 349.721 41.88 358.937 41.88C368.729 41.88 373.913 48.072 373.913 59.16V69.24L358.793 72.984C336.041 78.6 327.833 84.792 327.833 96.168C327.833 106.68 335.753 112.44 350.009 112.44ZM353.321 105.24C345.689 105.24 341.513 101.64 341.513 95.016C341.513 86.088 350.009 81.048 373.913 75.72V77.88C373.913 92.712 365.705 105.24 353.321 105.24ZM431.414 112.44C445.814 112.44 456.038 104.088 456.038 93.144C456.038 84.36 450.854 78.168 438.47 72.408L426.23 66.648C417.734 62.76 413.414 58.728 413.414 53.256C413.414 45.768 419.03 41.88 426.95 41.88C437.894 41.88 444.662 51.672 447.254 64.92L451.718 64.488L448.838 39H447.398C438.326 39 433.142 36.12 424.358 36.12C411.83 36.12 402.758 44.616 402.758 56.568C402.758 65.784 407.222 71.832 418.166 77.016L432.854 84.072C440.054 87.528 443.942 91.272 443.942 96.6C443.942 103.08 437.894 106.68 430.406 106.68C415.142 106.68 406.934 95.736 404.486 79.32L399.878 79.752L402.758 109.56H404.198C416.15 109.56 423.062 112.44 431.414 112.44ZM491.133 111H542.973V105.24H522.813L519.933 102.36V44.76H542.973V39H519.933V17.4L522.813 14.52H547.293L550.173 0.119994L538.653 0.839993C532.605 1.128 525.405 4.72799 519.933 10.2L506.973 23.16V39H491.133V44.76H506.973V102.36L504.093 105.24H491.133V111ZM577.516 112.44C599.98 112.44 614.956 97.608 614.956 74.28C614.956 50.952 599.98 36.12 577.516 36.12C555.052 36.12 540.076 50.952 540.076 74.28C540.076 97.608 555.052 112.44 577.516 112.44ZM577.516 105.96C562.828 105.96 554.476 95.016 554.476 74.28C554.476 53.544 562.828 42.6 577.516 42.6C592.204 42.6 600.556 53.544 600.556 74.28C600.556 95.016 592.204 105.96 577.516 105.96ZM617.133 111H667.533V105.24H644.493L641.613 102.36V73.56C641.613 59.304 648.669 50.52 660.333 50.52H671.853L674.733 36.12L663.213 36.84C653.709 37.416 645.501 44.328 641.613 54.84H640.173V36.12C632.973 39.72 624.333 41.88 617.133 41.88V47.64H628.653V102.36L625.773 105.24H617.133V111ZM0.88 297H51.28V291.24H28.24L25.36 288.36V255.24H26.944C32.272 259.848 39.616 262.44 47.536 262.44C67.552 262.44 82.96 246.024 82.96 223.848C82.96 201.384 69.136 186.12 49.264 186.12C39.04 186.12 29.392 190.44 25.36 197.64H23.92V186.12C16.72 189.72 8.08 191.88 0.88 191.88V197.64H12.4V288.36L9.52 291.24H0.88V297ZM45.808 255.24C33.28 255.24 25.36 245.88 25.36 230.76V216.36C25.36 203.4 34 193.32 46.384 193.32C59.776 193.32 68.56 204.552 68.56 224.28C68.56 243.864 59.92 255.24 45.808 255.24ZM109.405 262.44C120.925 262.44 128.989 256.968 133.309 249.048H134.749V261H157.789V255.24H149.149L146.269 252.36V209.16C146.269 194.328 136.333 186.12 118.621 186.12C102.061 186.12 92.2694 193.896 91.5494 207.72L90.8294 220.68L103.789 214.92V204.84C103.789 196.488 109.117 191.88 118.333 191.88C128.125 191.88 133.309 198.072 133.309 209.16V219.24L118.189 222.984C95.4374 228.6 87.2294 234.792 87.2294 246.168C87.2294 256.68 95.1494 262.44 109.405 262.44ZM112.717 255.24C105.085 255.24 100.909 251.64 100.909 245.016C100.909 236.088 109.405 231.048 133.309 225.72V227.88C133.309 242.712 125.101 255.24 112.717 255.24ZM165.754 170.28H183.034V153H165.754V170.28ZM157.114 261H193.114V255.24H184.474L181.594 252.36V186.12C174.394 189.72 165.178 191.88 157.114 191.88V197.64H168.634V252.36L165.754 255.24H157.114V261ZM191.612 261H278.013V255.24H269.373L266.492 252.36V212.04C266.492 195.192 257.852 186.12 242.012 186.12C230.636 186.12 221.564 190.728 216.092 199.08H214.652V186.12C207.452 189.72 198.812 191.88 191.612 191.88V197.64H203.132V252.36L200.252 255.24H191.612V261ZM218.972 255.24L216.092 252.36V219.24C216.092 203.4 223.724 194.76 237.692 194.76C247.916 194.76 253.532 201.816 253.532 214.92V252.36L250.652 255.24H218.972ZM301.718 262.44C316.838 262.44 323.462 250.632 323.462 229.32L318.566 229.032C318.422 247.32 312.23 255.24 304.598 255.24C299.558 255.24 296.102 251.352 296.102 245.16V194.76H319.142V189H296.102V164.52H293.222C290.342 179.496 282.854 187.56 270.182 191.88V194.76H283.142V245.16C283.142 255.816 290.342 262.44 301.718 262.44ZM329.999 170.28H347.279V153H329.999V170.28ZM321.359 261H357.359V255.24H348.719L345.839 252.36V186.12C338.639 189.72 329.423 191.88 321.359 191.88V197.64H332.879V252.36L329.999 255.24H321.359V261ZM355.857 261H442.257V255.24H433.617L430.737 252.36V212.04C430.737 195.192 422.097 186.12 406.257 186.12C394.881 186.12 385.809 190.728 380.337 199.08H378.897V186.12C371.697 189.72 363.057 191.88 355.857 191.88V197.64H367.377V252.36L364.497 255.24H355.857V261ZM383.217 255.24L380.337 252.36V219.24C380.337 203.4 387.969 194.76 401.937 194.76C412.161 194.76 417.777 201.816 417.777 214.92V252.36L414.897 255.24H383.217ZM475.687 297C497.431 297 510.679 287.352 510.679 271.368C510.679 260.424 502.903 251.784 483.607 249.768L471.511 248.472C462.583 247.464 459.559 244.44 458.839 239.4L473.959 237.96C491.383 236.376 501.319 228.6 501.319 212.04C501.319 207.288 500.167 203.112 498.151 199.368L499.879 197.64H514.999L517.159 184.68L507.079 185.4C501.607 185.688 496.999 189.144 494.695 194.616C489.799 189.288 482.455 186.12 473.959 186.12C458.407 186.12 446.599 197.352 446.599 212.04C446.599 221.688 452.503 230.616 460.999 233.64V235.08L446.023 236.52C446.023 252.216 452.503 258.12 468.343 259.992L480.727 261.432C493.111 262.872 499.159 268.776 499.159 276.264C499.159 285.336 490.951 291.24 476.551 291.24C462.871 291.24 455.239 286.056 455.239 276.84V265.32L440.839 262.44L441.559 273.96C442.567 288.504 455.239 297 475.687 297ZM473.959 232.2C465.175 232.2 460.279 225 460.279 212.04C460.279 199.08 465.175 191.88 473.959 191.88C482.743 191.88 487.639 199.08 487.639 212.04C487.639 225 482.743 232.2 473.959 232.2Z" fill="#B9BDC5" fill-opacity="0.05"/>
<path d="M103.12 71.4L104.1 71.6011L104.292 70.6623L103.363 70.4299L103.12 71.4ZM97.936 70.104L98.1785 69.1339L97.1506 68.8769L96.9535 69.918L97.936 70.104ZM95.344 47.928L94.3748 48.1742L94.61 49.1001L95.5457 48.9075L95.344 47.928ZM100.24 46.92L100.442 47.8995L101.393 47.7036L101.225 46.7472L100.24 46.92ZM93.04 5.88L94.025 5.7072L93.8798 4.88H93.04V5.88ZM58.912 114.88C70.5265 114.88 80.4284 111.013 88.1342 103.622C95.8252 96.2442 101.263 85.4199 104.1 71.6011L102.14 71.1989C99.3609 84.7401 94.0708 95.1558 86.7498 102.178C79.4436 109.187 70.0495 112.88 58.912 112.88V114.88ZM103.363 70.4299L98.1785 69.1339L97.6935 71.0741L102.877 72.3701L103.363 70.4299ZM96.9535 69.918C94.6732 81.9606 90.383 90.9292 84.38 96.8798C78.3969 102.811 70.6323 105.824 61.216 105.824V107.824C71.0957 107.824 79.3872 104.645 85.788 98.3002C92.169 91.9748 96.5908 82.5834 98.9185 70.29L96.9535 69.918ZM61.216 105.824C49.508 105.824 40.501 101.887 34.3903 94.1102C28.2475 86.292 24.92 74.4524 24.92 58.44H22.92C22.92 74.6836 26.2885 87.036 32.8177 95.3458C39.379 103.697 49.02 107.824 61.216 107.824V105.824ZM24.92 58.44C24.92 42.4259 28.1762 30.0623 34.1813 21.7286C40.1531 13.4413 48.9122 9.04 60.208 9.04V7.04C48.3198 7.04 38.9349 11.7107 32.5587 20.5594C26.2158 29.3617 22.92 42.1981 22.92 58.44H24.92ZM60.208 9.04C68.4751 9.04 75.2963 12.2178 80.9105 18.6515C86.5591 25.1245 91.0085 34.9238 94.3748 48.1742L96.3132 47.6818C92.9115 34.2922 88.361 24.1475 82.4175 17.3365C76.4397 10.4862 69.077 7.04 60.208 7.04V9.04ZM95.5457 48.9075L100.442 47.8995L100.038 45.9405L95.1424 46.9485L95.5457 48.9075ZM101.225 46.7472L94.025 5.7072L92.055 6.0528L99.2551 47.0928L101.225 46.7472ZM93.04 4.88H90.16V6.88H93.04V4.88ZM90.16 4.88C82.7487 4.88 78.0205 4.16902 73.6538 3.45317C69.2669 2.73401 65.1959 1.99999 59.2 1.99999V3.99999C65.0121 3.99999 68.9331 4.70598 73.3302 5.42682C77.7476 6.15098 82.5953 6.88 90.16 6.88V4.88ZM59.2 1.99999C42.1524 1.99999 28.7207 7.06832 19.5578 16.7486C10.4026 26.4206 5.64 40.5583 5.64 58.44H7.64C7.64 40.8977 12.3094 27.3154 21.0102 18.1234C29.7033 8.93967 42.5516 3.99999 59.2 3.99999V1.99999ZM5.64 58.44C5.64 76.3217 10.4026 90.4584 19.5204 100.13C28.6464 109.81 42.0061 114.88 58.912 114.88V112.88C42.4099 112.88 29.6336 107.942 20.9756 98.758C12.3094 89.5656 7.64 75.9823 7.64 58.44H5.64ZM153.559 99.048V98.048H152.966L152.681 98.5691L153.559 99.048ZM154.999 99.048H155.999V98.048H154.999V99.048ZM154.999 111H153.999V112H154.999V111ZM178.039 111V112H179.039V111H178.039ZM178.039 105.24H179.039V104.24H178.039V105.24ZM169.399 105.24L168.692 105.947L168.985 106.24H169.399V105.24ZM166.519 102.36H165.519V102.774L165.812 103.067L166.519 102.36ZM111.799 57.72L112.798 57.7755L112.798 57.772L111.799 57.72ZM111.079 70.68L110.081 70.6245L109.99 72.2584L111.486 71.5938L111.079 70.68ZM124.039 64.92L124.446 65.8338L125.039 65.5699V64.92H124.039ZM153.559 69.24L153.8 70.2107L154.559 70.0226V69.24H153.559ZM138.439 72.984L138.679 73.9549L138.68 73.9547L138.439 72.984ZM153.559 75.72H154.559V74.4726L153.342 74.7439L153.559 75.72ZM129.655 113.44C141.537 113.44 149.94 107.772 154.437 99.5268L152.681 98.5691C148.539 106.164 140.814 111.44 129.655 111.44V113.44ZM153.559 100.048H154.999V98.048H153.559V100.048ZM153.999 99.048V111H155.999V99.048H153.999ZM154.999 112H178.039V110H154.999V112ZM179.039 111V105.24H177.039V111H179.039ZM178.039 104.24H169.399V106.24H178.039V104.24ZM170.106 104.533L167.226 101.653L165.812 103.067L168.692 105.947L170.106 104.533ZM167.519 102.36V59.16H165.519V102.36H167.519ZM167.519 59.16C167.519 51.5055 164.945 45.4396 159.977 41.3091C155.037 37.2023 147.865 35.12 138.871 35.12V37.12C147.59 37.12 154.242 39.1417 158.698 42.8469C163.126 46.5284 165.519 51.9825 165.519 59.16H167.519ZM138.871 35.12C130.447 35.12 123.612 37.0969 118.772 40.9539C113.908 44.8299 111.173 50.5138 110.801 57.668L112.798 57.772C113.145 51.1022 115.667 45.9861 120.019 42.5181C124.394 39.0311 130.735 37.12 138.871 37.12V35.12ZM110.801 57.6645L110.081 70.6245L112.078 70.7355L112.798 57.7755L110.801 57.6645ZM111.486 71.5938L124.446 65.8338L123.633 64.0062L110.673 69.7662L111.486 71.5938ZM125.039 64.92V54.84H123.039V64.92H125.039ZM125.039 54.84C125.039 50.8856 126.293 47.9442 128.518 45.9772C130.761 43.9936 134.13 42.88 138.583 42.88V40.88C133.821 40.88 129.917 42.0704 127.193 44.4788C124.45 46.9038 123.039 50.4424 123.039 54.84H125.039ZM138.583 42.88C143.259 42.88 146.697 44.3495 148.985 47.0136C151.294 49.7026 152.559 53.7552 152.559 59.16H154.559C154.559 53.4768 153.232 48.8894 150.502 45.7104C147.75 42.5065 143.7 40.88 138.583 40.88V42.88ZM152.559 59.16V69.24H154.559V59.16H152.559ZM153.319 68.2693L138.199 72.0133L138.68 73.9547L153.8 70.2107L153.319 68.2693ZM138.2 72.0131C126.803 74.8262 118.894 77.8157 113.827 81.616C111.277 83.5287 109.428 85.6602 108.222 88.0916C107.016 90.5228 106.479 93.2005 106.479 96.168H108.479C108.479 93.4475 108.969 91.0852 110.013 88.9804C111.057 86.8758 112.682 84.9753 115.027 83.216C119.752 79.6723 127.324 76.7578 138.679 73.9549L138.2 72.0131ZM106.479 96.168C106.479 101.707 108.584 106.09 112.631 109.053C116.63 111.981 122.415 113.44 129.655 113.44V111.44C122.64 111.44 117.336 110.019 113.812 107.439C110.335 104.894 108.479 101.141 108.479 96.168H106.479ZM132.967 104.24C129.293 104.24 126.609 103.372 124.856 101.856C123.126 100.36 122.159 98.1088 122.159 95.016H120.159C120.159 98.5472 121.281 101.408 123.547 103.368C125.79 105.308 129.01 106.24 132.967 106.24V104.24ZM122.159 95.016C122.159 92.9546 122.646 91.1584 123.7 89.5264C124.763 87.8818 126.439 86.3458 128.907 84.8774C133.87 81.9239 141.832 79.3586 153.777 76.696L153.342 74.7439C141.383 77.4094 133.145 80.0281 127.884 83.1586C125.24 84.7322 123.298 86.4632 122.02 88.4411C120.735 90.4316 120.159 92.6134 120.159 95.016H122.159ZM152.559 75.72V77.88H154.559V75.72H152.559ZM152.559 77.88C152.559 85.1229 150.554 91.7488 147.097 96.5366C143.65 101.31 138.784 104.24 132.967 104.24V106.24C139.535 106.24 144.964 102.906 148.718 97.7074C152.461 92.5232 154.559 85.4691 154.559 77.88H152.559ZM177.364 111H176.364V112H177.364V111ZM263.764 111V112H264.764V111H263.764ZM263.764 105.24H264.764V104.24H263.764V105.24ZM255.124 105.24L254.417 105.947L254.71 106.24H255.124V105.24ZM252.244 102.36H251.244V102.774L251.537 103.067L252.244 102.36ZM201.844 49.08V50.08H202.385L202.681 49.628L201.844 49.08ZM200.404 49.08H199.404V50.08H200.404V49.08ZM200.404 36.12H201.404V34.502L199.957 35.2256L200.404 36.12ZM177.364 41.88V40.88H176.364V41.88H177.364ZM177.364 47.64H176.364V48.64H177.364V47.64ZM188.884 47.64H189.884V46.64H188.884V47.64ZM188.884 102.36L189.591 103.067L189.884 102.774V102.36H188.884ZM186.004 105.24V106.24H186.419L186.711 105.947L186.004 105.24ZM177.364 105.24V104.24H176.364V105.24H177.364ZM204.724 105.24L204.017 105.947L204.31 106.24H204.724V105.24ZM201.844 102.36H200.844V102.774L201.137 103.067L201.844 102.36ZM239.284 102.36L239.991 103.067L240.284 102.774V102.36H239.284ZM236.404 105.24V106.24H236.819L237.111 105.947L236.404 105.24ZM177.364 112H263.764V110H177.364V112ZM264.764 111V105.24H262.764V111H264.764ZM263.764 104.24H255.124V106.24H263.764V104.24ZM255.831 104.533L252.951 101.653L251.537 103.067L254.417 105.947L255.831 104.533ZM253.244 102.36V62.04H251.244V102.36H253.244ZM253.244 62.04C253.244 53.4555 251.042 46.6935 246.671 42.0746C242.29 37.4468 235.874 35.12 227.764 35.12V37.12C235.495 37.12 241.318 39.3292 245.218 43.4494C249.126 47.5785 251.244 53.7765 251.244 62.04H253.244ZM227.764 35.12C216.098 35.12 206.689 39.8608 201.008 48.532L202.681 49.628C207.944 41.5952 216.679 37.12 227.764 37.12V35.12ZM201.844 48.08H200.404V50.08H201.844V48.08ZM201.404 49.08V36.12H199.404V49.08H201.404ZM199.957 35.2256C192.879 38.7644 184.392 40.88 177.364 40.88V42.88C184.737 42.88 193.529 40.6756 200.852 37.0144L199.957 35.2256ZM176.364 41.88V47.64H178.364V41.88H176.364ZM177.364 48.64H188.884V46.64H177.364V48.64ZM187.884 47.64V102.36H189.884V47.64H187.884ZM188.177 101.653L185.297 104.533L186.711 105.947L189.591 103.067L188.177 101.653ZM186.004 104.24H177.364V106.24H186.004V104.24ZM176.364 105.24V111H178.364V105.24H176.364ZM205.431 104.533L202.551 101.653L201.137 103.067L204.017 105.947L205.431 104.533ZM202.844 102.36V69.24H200.844V102.36H202.844ZM202.844 69.24C202.844 61.4659 204.718 55.6171 208.156 51.7217C211.576 47.8466 216.673 45.76 223.444 45.76V43.76C216.247 43.76 210.544 45.9934 206.657 50.3983C202.787 54.783 200.844 61.1741 200.844 69.24H202.844ZM223.444 45.76C228.306 45.76 231.953 47.4242 234.413 50.5451C236.904 53.7043 238.284 58.4901 238.284 64.92H240.284C240.284 58.2459 238.857 52.9517 235.984 49.3069C233.08 45.6238 228.807 43.76 223.444 43.76V45.76ZM238.284 64.92V102.36H240.284V64.92H238.284ZM238.577 101.653L235.697 104.533L237.111 105.947L239.991 103.067L238.577 101.653ZM236.404 104.24H204.724V106.24H236.404V104.24ZM287.541 111L286.61 111.364L286.859 112H287.541V111ZM299.061 111V112H299.758L299.999 111.347L299.061 111ZM323.541 44.76V43.76H322.845L322.603 44.4133L323.541 44.76ZM330.741 44.76V45.76H331.741V44.76H330.741ZM330.741 39H331.741V38H330.741V39ZM252.981 39V38H251.981V39H252.981ZM252.981 44.76H251.981V45.76H252.981V44.76ZM261.621 44.76L262.552 44.3956L262.304 43.76H261.621V44.76ZM295.749 98.04L294.809 98.3811L295.048 99.04H295.749V98.04ZM277.461 47.64L276.754 46.9329L276.304 47.3829L276.521 47.9811L277.461 47.64ZM280.341 44.76V43.76H279.927L279.634 44.0529L280.341 44.76ZM312.309 44.76L313.016 44.0529L312.723 43.76H312.309V44.76ZM315.189 47.64L316.131 47.9763L316.344 47.3804L315.896 46.9329L315.189 47.64ZM297.189 98.04V99.04H297.894L298.131 98.3763L297.189 98.04ZM287.541 112H299.061V110H287.541V112ZM299.999 111.347L324.479 45.1066L322.603 44.4133L298.123 110.653L299.999 111.347ZM323.541 45.76H330.741V43.76H323.541V45.76ZM331.741 44.76V39H329.741V44.76H331.741ZM330.741 38H252.981V40H330.741V38ZM251.981 39V44.76H253.981V39H251.981ZM252.981 45.76H261.621V43.76H252.981V45.76ZM260.69 45.1244L286.61 111.364L288.472 110.636L262.552 44.3956L260.69 45.1244ZM296.689 97.6989L278.401 47.2989L276.521 47.9811L294.809 98.3811L296.689 97.6989ZM278.168 48.3471L281.048 45.4671L279.634 44.0529L276.754 46.9329L278.168 48.3471ZM280.341 45.76H312.309V43.76H280.341V45.76ZM311.602 45.4671L314.482 48.3471L315.896 46.9329L313.016 44.0529L311.602 45.4671ZM314.247 47.3037L296.247 97.7037L298.131 98.3763L316.131 47.9763L314.247 47.3037ZM297.189 97.04H295.749V99.04H297.189V97.04ZM373.913 99.048V98.048H373.319L373.035 98.5691L373.913 99.048ZM375.353 99.048H376.353V98.048H375.353V99.048ZM375.353 111H374.353V112H375.353V111ZM398.393 111V112H399.393V111H398.393ZM398.393 105.24H399.393V104.24H398.393V105.24ZM389.753 105.24L389.046 105.947L389.339 106.24H389.753V105.24ZM386.873 102.36H385.873V102.774L386.166 103.067L386.873 102.36ZM332.153 57.72L333.152 57.7755L333.152 57.772L332.153 57.72ZM331.433 70.68L330.435 70.6245L330.344 72.2584L331.839 71.5938L331.433 70.68ZM344.393 64.92L344.799 65.8338L345.393 65.5699V64.92H344.393ZM373.913 69.24L374.153 70.2107L374.913 70.0226V69.24H373.913ZM358.793 72.984L359.033 73.9549L359.033 73.9547L358.793 72.984ZM373.913 75.72H374.913V74.4726L373.696 74.7439L373.913 75.72ZM350.009 113.44C361.891 113.44 370.294 107.772 374.791 99.5268L373.035 98.5691C368.892 106.164 361.167 111.44 350.009 111.44V113.44ZM373.913 100.048H375.353V98.048H373.913V100.048ZM374.353 99.048V111H376.353V99.048H374.353ZM375.353 112H398.393V110H375.353V112ZM399.393 111V105.24H397.393V111H399.393ZM398.393 104.24H389.753V106.24H398.393V104.24ZM390.46 104.533L387.58 101.653L386.166 103.067L389.046 105.947L390.46 104.533ZM387.873 102.36V59.16H385.873V102.36H387.873ZM387.873 59.16C387.873 51.5055 385.299 45.4396 380.33 41.3091C375.391 37.2023 368.219 35.12 359.225 35.12V37.12C367.943 37.12 374.595 39.1417 379.052 42.8469C383.48 46.5284 385.873 51.9825 385.873 59.16H387.873ZM359.225 35.12C350.801 35.12 343.966 37.0969 339.126 40.9539C334.262 44.8299 331.527 50.5138 331.154 57.668L333.152 57.772C333.499 51.1022 336.02 45.9861 340.372 42.5181C344.748 39.0311 351.089 37.12 359.225 37.12V35.12ZM331.155 57.6645L330.435 70.6245L332.432 70.7355L333.152 57.7755L331.155 57.6645ZM331.839 71.5938L344.799 65.8338L343.987 64.0062L331.027 69.7662L331.839 71.5938ZM345.393 64.92V54.84H343.393V64.92H345.393ZM345.393 54.84C345.393 50.8856 346.646 47.9442 348.871 45.9772C351.115 43.9936 354.484 42.88 358.937 42.88V40.88C354.175 40.88 350.271 42.0704 347.547 44.4788C344.804 46.9038 343.393 50.4424 343.393 54.84H345.393ZM358.937 42.88C363.613 42.88 367.05 44.3495 369.339 47.0136C371.648 49.7026 372.913 53.7552 372.913 59.16H374.913C374.913 53.4768 373.586 48.8894 370.856 45.7104C368.104 42.5065 364.054 40.88 358.937 40.88V42.88ZM372.913 59.16V69.24H374.913V59.16H372.913ZM373.673 68.2693L358.553 72.0133L359.033 73.9547L374.153 70.2107L373.673 68.2693ZM358.553 72.0131C347.157 74.8262 339.248 77.8157 334.181 81.616C331.631 83.5287 329.781 85.6602 328.575 88.0916C327.369 90.5228 326.833 93.2005 326.833 96.168H328.833C328.833 93.4475 329.323 91.0852 330.367 88.9804C331.411 86.8758 333.035 84.9753 335.381 83.216C340.106 79.6723 347.677 76.7578 359.033 73.9549L358.553 72.0131ZM326.833 96.168C326.833 101.707 328.938 106.09 332.984 109.053C336.984 111.981 342.769 113.44 350.009 113.44V111.44C342.993 111.44 337.69 110.019 334.166 107.439C330.689 104.894 328.833 101.141 328.833 96.168H326.833ZM353.321 104.24C349.646 104.24 346.963 103.372 345.209 101.856C343.48 100.36 342.513 98.1088 342.513 95.016H340.513C340.513 98.5472 341.635 101.408 343.901 103.368C346.144 105.308 349.364 106.24 353.321 106.24V104.24ZM342.513 95.016C342.513 92.9546 343 91.1584 344.054 89.5264C345.116 87.8818 346.793 86.3458 349.26 84.8774C354.224 81.9239 362.185 79.3586 374.131 76.696L373.696 74.7439C361.737 77.4094 353.499 80.0281 348.238 83.1586C345.594 84.7322 343.652 86.4632 342.374 88.4411C341.088 90.4316 340.513 92.6134 340.513 95.016H342.513ZM372.913 75.72V77.88H374.913V75.72H372.913ZM372.913 77.88C372.913 85.1229 370.907 91.7488 367.45 96.5366C364.004 101.31 359.137 104.24 353.321 104.24V106.24C359.889 106.24 365.318 102.906 369.072 97.7074C372.815 92.5232 374.913 85.4691 374.913 77.88H372.913ZM438.47 72.408L438.044 73.3128L438.048 73.3147L438.47 72.408ZM426.23 66.648L426.656 65.7431L426.646 65.7387L426.23 66.648ZM447.254 64.92L446.273 65.112L446.447 66.0028L447.35 65.9153L447.254 64.92ZM451.718 64.488L451.814 65.4833L452.826 65.3855L452.712 64.3757L451.718 64.488ZM448.838 39L449.832 38.8877L449.732 38H448.838V39ZM418.166 77.016L418.599 76.1146L418.594 76.1123L418.166 77.016ZM432.854 84.072L432.421 84.9734L432.421 84.9735L432.854 84.072ZM404.486 79.32L405.475 79.1725L405.336 78.236L404.393 78.3244L404.486 79.32ZM399.878 79.752L399.785 78.7564L398.786 78.85L398.883 79.8482L399.878 79.752ZM402.758 109.56L401.763 109.656L401.85 110.56H402.758V109.56ZM431.414 113.44C446.138 113.44 457.038 104.844 457.038 93.144H455.038C455.038 103.332 445.49 111.44 431.414 111.44V113.44ZM457.038 93.144C457.038 88.5276 455.666 84.5519 452.662 80.9966C449.684 77.4726 445.145 74.4097 438.892 71.5013L438.048 73.3147C444.179 76.1663 448.424 79.0794 451.134 82.2874C453.818 85.4641 455.038 88.9764 455.038 93.144H457.038ZM438.896 71.5032L426.656 65.7432L425.804 67.5528L438.044 73.3128L438.896 71.5032ZM426.646 65.7387C418.163 61.8567 414.414 58.0646 414.414 53.256H412.414C412.414 59.3914 417.305 63.6633 425.814 67.5573L426.646 65.7387ZM414.414 53.256C414.414 49.788 415.701 47.2432 417.835 45.542C420 43.8167 423.139 42.88 426.95 42.88V40.88C422.841 40.88 419.212 41.8873 416.589 43.978C413.935 46.0928 412.414 49.236 412.414 53.256H414.414ZM426.95 42.88C432.081 42.88 436.24 45.16 439.463 49.0682C442.706 53.002 444.996 58.588 446.273 65.112L448.236 64.728C446.92 58.004 444.53 52.07 441.006 47.7958C437.46 43.496 432.763 40.88 426.95 40.88V42.88ZM447.35 65.9153L451.814 65.4833L451.622 63.4926L447.158 63.9246L447.35 65.9153ZM452.712 64.3757L449.832 38.8877L447.844 39.1123L450.724 64.6003L452.712 64.3757ZM448.838 38H447.398V40H448.838V38ZM447.398 38C442.973 38 439.496 37.2998 435.97 36.5802C432.445 35.8608 428.863 35.12 424.358 35.12V37.12C428.637 37.12 432.039 37.8192 435.57 38.5398C439.1 39.2602 442.752 40 447.398 40V38ZM424.358 35.12C411.333 35.12 401.758 44.0099 401.758 56.568H403.758C403.758 45.2221 412.327 37.12 424.358 37.12V35.12ZM401.758 56.568C401.758 61.3524 402.922 65.3894 405.558 68.904C408.177 72.3958 412.188 75.291 417.738 77.9197L418.594 76.1123C413.2 73.557 409.507 70.8362 407.158 67.704C404.826 64.5946 403.758 60.9996 403.758 56.568H401.758ZM417.733 77.9174L432.421 84.9734L433.287 83.1706L418.599 76.1146L417.733 77.9174ZM432.421 84.9735C439.57 88.4046 442.942 91.9007 442.942 96.6H444.942C444.942 90.6433 440.539 86.6514 433.287 83.1705L432.421 84.9735ZM442.942 96.6C442.942 99.483 441.616 101.709 439.409 103.25C437.173 104.813 434.005 105.68 430.406 105.68V107.68C434.295 107.68 437.896 106.747 440.555 104.89C443.245 103.011 444.942 100.197 444.942 96.6H442.942ZM430.406 105.68C423.042 105.68 417.452 103.053 413.387 98.4908C409.295 93.8979 406.682 87.2668 405.475 79.1725L403.497 79.4675C404.738 87.7892 407.454 94.8381 411.893 99.8212C416.361 104.835 422.507 107.68 430.406 107.68V105.68ZM404.393 78.3244L399.785 78.7564L399.971 80.7476L404.579 80.3156L404.393 78.3244ZM398.883 79.8482L401.763 109.656L403.754 109.464L400.874 79.6558L398.883 79.8482ZM402.758 110.56H404.198V108.56H402.758V110.56ZM404.198 110.56C410.089 110.56 414.74 111.269 418.99 111.986C423.225 112.701 427.135 113.44 431.414 113.44V111.44C427.341 111.44 423.619 110.739 419.323 110.014C415.041 109.291 410.259 108.56 404.198 108.56V110.56ZM491.133 111H490.133V112H491.133V111ZM542.973 111V112H543.973V111H542.973ZM542.973 105.24H543.973V104.24H542.973V105.24ZM522.812 105.24L522.105 105.947L522.398 106.24H522.812V105.24ZM519.932 102.36H518.932V102.774L519.225 103.067L519.932 102.36ZM519.932 44.76V43.76H518.932V44.76H519.932ZM542.973 44.76V45.76H543.973V44.76H542.973ZM542.973 39H543.973V38H542.973V39ZM519.932 39H518.932V40H519.932V39ZM519.932 17.4L519.225 16.6929L518.932 16.9858V17.4H519.932ZM522.812 14.52V13.52H522.398L522.105 13.8129L522.812 14.52ZM547.292 14.52V15.52H548.112L548.273 14.7161L547.292 14.52ZM550.172 0.119995L551.153 0.316111L551.408 -0.959185L550.11 -0.878057L550.172 0.119995ZM538.653 0.839993L538.7 1.83886L538.707 1.83851L538.715 1.83805L538.653 0.839993ZM519.932 10.2L519.225 9.49289L519.932 10.2ZM506.973 23.16L506.265 22.4529L505.973 22.7458V23.16H506.973ZM506.973 39V40H507.973V39H506.973ZM491.133 39V38H490.133V39H491.133ZM491.133 44.76H490.133V45.76H491.133V44.76ZM506.973 44.76H507.973V43.76H506.973V44.76ZM506.973 102.36L507.68 103.067L507.973 102.774V102.36H506.973ZM504.092 105.24V106.24H504.507L504.8 105.947L504.092 105.24ZM491.133 105.24V104.24H490.133V105.24H491.133ZM491.133 112H542.973V110H491.133V112ZM543.973 111V105.24H541.973V111H543.973ZM542.973 104.24H522.812V106.24H542.973V104.24ZM523.52 104.533L520.64 101.653L519.225 103.067L522.105 105.947L523.52 104.533ZM520.932 102.36V44.76H518.932V102.36H520.932ZM519.932 45.76H542.973V43.76H519.932V45.76ZM543.973 44.76V39H541.973V44.76H543.973ZM542.973 38H519.932V40H542.973V38ZM520.932 39V17.4H518.932V39H520.932ZM520.64 18.1071L523.52 15.2271L522.105 13.8129L519.225 16.6929L520.64 18.1071ZM522.812 15.52H547.292V13.52H522.812V15.52ZM548.273 14.7161L551.153 0.316111L549.192 -0.0761223L546.312 14.3239L548.273 14.7161ZM550.11 -0.878057L538.59 -0.158058L538.715 1.83805L550.235 1.11805L550.11 -0.878057ZM538.605 -0.158875C532.245 0.143972 524.823 3.89554 519.225 9.49289L520.64 10.9071C525.986 5.56045 532.964 2.11202 538.7 1.83886L538.605 -0.158875ZM519.225 9.49289L506.265 22.4529L507.68 23.8671L520.64 10.9071L519.225 9.49289ZM505.973 23.16V39H507.973V23.16H505.973ZM506.973 38H491.133V40H506.973V38ZM490.133 39V44.76H492.133V39H490.133ZM491.133 45.76H506.973V43.76H491.133V45.76ZM505.973 44.76V102.36H507.973V44.76H505.973ZM506.265 101.653L503.385 104.533L504.8 105.947L507.68 103.067L506.265 101.653ZM504.092 104.24H491.133V106.24H504.092V104.24ZM490.133 105.24V111H492.133V105.24H490.133ZM577.516 113.44C588.973 113.44 598.603 109.653 605.371 102.811C612.138 95.9699 615.956 86.1616 615.956 74.28H613.956C613.956 85.7264 610.286 94.9981 603.949 101.405C597.612 107.811 588.523 111.44 577.516 111.44V113.44ZM615.956 74.28C615.956 62.3984 612.138 52.5901 605.371 45.7488C598.603 38.9068 588.973 35.12 577.516 35.12V37.12C588.523 37.12 597.612 40.7492 603.949 47.1552C610.286 53.5619 613.956 62.8336 613.956 74.28H615.956ZM577.516 35.12C566.059 35.12 556.428 38.9068 549.661 45.7488C542.894 52.5901 539.076 62.3984 539.076 74.28H541.076C541.076 62.8336 544.746 53.5619 551.083 47.1552C557.419 40.7492 566.509 37.12 577.516 37.12V35.12ZM539.076 74.28C539.076 86.1616 542.894 95.9699 549.661 102.811C556.428 109.653 566.059 113.44 577.516 113.44V111.44C566.509 111.44 557.419 107.811 551.083 101.405C544.746 94.9981 541.076 85.7264 541.076 74.28H539.076ZM577.516 104.96C570.451 104.96 565.006 102.345 561.293 97.303C557.545 92.2138 555.476 84.5364 555.476 74.28H553.476C553.476 84.7596 555.583 92.9222 559.682 98.489C563.817 104.103 569.893 106.96 577.516 106.96V104.96ZM555.476 74.28C555.476 64.0236 557.545 56.3462 561.293 51.257C565.006 46.2147 570.451 43.6 577.516 43.6V41.6C569.893 41.6 563.817 44.4573 559.682 50.071C555.583 55.6378 553.476 63.8004 553.476 74.28H555.476ZM577.516 43.6C584.581 43.6 590.025 46.2147 593.738 51.257C597.487 56.3462 599.556 64.0236 599.556 74.28H601.556C601.556 63.8004 599.449 55.6378 595.349 50.071C591.214 44.4573 585.138 41.6 577.516 41.6V43.6ZM599.556 74.28C599.556 84.5364 597.487 92.2138 593.738 97.303C590.025 102.345 584.581 104.96 577.516 104.96V106.96C585.138 106.96 591.214 104.103 595.349 98.489C599.449 92.9222 601.556 84.7596 601.556 74.28H599.556ZM617.133 111H616.133V112H617.133V111ZM667.533 111V112H668.533V111H667.533ZM667.533 105.24H668.533V104.24H667.533V105.24ZM644.493 105.24L643.785 105.947L644.078 106.24H644.493V105.24ZM641.613 102.36H640.613V102.774L640.905 103.067L641.613 102.36ZM671.853 50.52V51.52H672.672L672.833 50.7161L671.853 50.52ZM674.733 36.12L675.713 36.3161L675.968 35.0408L674.67 35.1219L674.733 36.12ZM663.213 36.84L663.273 37.8382L663.275 37.838L663.213 36.84ZM641.613 54.84V55.84H642.309L642.55 55.1869L641.613 54.84ZM640.173 54.84H639.173V55.84H640.173V54.84ZM640.173 36.12H641.173V34.502L639.725 35.2256L640.173 36.12ZM617.133 41.88V40.88H616.133V41.88H617.133ZM617.133 47.64H616.133V48.64H617.133V47.64ZM628.653 47.64H629.653V46.64H628.653V47.64ZM628.653 102.36L629.36 103.067L629.653 102.774V102.36H628.653ZM625.773 105.24V106.24H626.187L626.48 105.947L625.773 105.24ZM617.133 105.24V104.24H616.133V105.24H617.133ZM617.133 112H667.533V110H617.133V112ZM668.533 111V105.24H666.533V111H668.533ZM667.533 104.24H644.493V106.24H667.533V104.24ZM645.2 104.533L642.32 101.653L640.905 103.067L643.785 105.947L645.2 104.533ZM642.613 102.36V73.56H640.613V102.36H642.613ZM642.613 73.56C642.613 66.5847 644.34 61.0718 647.376 57.3234C650.391 53.6005 654.775 51.52 660.333 51.52V49.52C654.227 49.52 649.25 51.8315 645.821 56.0646C642.414 60.2722 640.613 66.2793 640.613 73.56H642.613ZM660.333 51.52H671.853V49.52H660.333V51.52ZM672.833 50.7161L675.713 36.3161L673.752 35.9239L670.872 50.3239L672.833 50.7161ZM674.67 35.1219L663.15 35.8419L663.275 37.838L674.795 37.118L674.67 35.1219ZM663.152 35.8418C653.165 36.4471 644.667 43.6991 640.675 54.4931L642.55 55.1869C646.334 44.9569 654.252 38.3849 663.273 37.8382L663.152 35.8418ZM641.613 53.84H640.173V55.84H641.613V53.84ZM641.173 54.84V36.12H639.173V54.84H641.173ZM639.725 35.2256C632.648 38.7644 624.16 40.88 617.133 40.88V42.88C624.505 42.88 633.297 40.6756 640.62 37.0144L639.725 35.2256ZM616.133 41.88V47.64H618.133V41.88H616.133ZM617.133 48.64H628.653V46.64H617.133V48.64ZM627.653 47.64V102.36H629.653V47.64H627.653ZM627.945 101.653L625.065 104.533L626.48 105.947L629.36 103.067L627.945 101.653ZM625.773 104.24H617.133V106.24H625.773V104.24ZM616.133 105.24V111H618.133V105.24H616.133ZM0.88 297H-0.12V298H0.88V297ZM51.28 297V298H52.28V297H51.28ZM51.28 291.24H52.28V290.24H51.28V291.24ZM28.24 291.24L27.5329 291.947L27.8258 292.24H28.24V291.24ZM25.36 288.36H24.36V288.774L24.6529 289.067L25.36 288.36ZM25.36 255.24V254.24H24.36V255.24H25.36ZM26.944 255.24L27.5982 254.484L27.3164 254.24H26.944V255.24ZM25.36 197.64V198.64H25.9461L26.2325 198.129L25.36 197.64ZM23.92 197.64H22.92V198.64H23.92V197.64ZM23.92 186.12H24.92V184.502L23.4728 185.226L23.92 186.12ZM0.88 191.88V190.88H-0.12V191.88H0.88ZM0.88 197.64H-0.12V198.64H0.88V197.64ZM12.4 197.64H13.4V196.64H12.4V197.64ZM12.4 288.36L13.1071 289.067L13.4 288.774V288.36H12.4ZM9.52 291.24V292.24H9.93421L10.2271 291.947L9.52 291.24ZM0.88 291.24V290.24H-0.12V291.24H0.88ZM0.88 298H51.28V296H0.88V298ZM52.28 297V291.24H50.28V297H52.28ZM51.28 290.24H28.24V292.24H51.28V290.24ZM28.9471 290.533L26.0671 287.653L24.6529 289.067L27.5329 291.947L28.9471 290.533ZM26.36 288.36V255.24H24.36V288.36H26.36ZM25.36 256.24H26.944V254.24H25.36V256.24ZM26.2898 255.996C31.8199 260.779 39.4041 263.44 47.536 263.44V261.44C39.8279 261.44 32.7241 258.917 27.5982 254.484L26.2898 255.996ZM47.536 263.44C68.1772 263.44 83.96 246.5 83.96 223.848H81.96C81.96 245.548 66.9268 261.44 47.536 261.44V263.44ZM83.96 223.848C83.96 212.412 80.4395 202.729 74.3085 195.892C68.1701 189.047 59.4708 185.12 49.264 185.12V187.12C58.9292 187.12 67.0779 190.825 72.8195 197.228C78.5686 203.639 81.96 212.82 81.96 223.848H83.96ZM49.264 185.12C38.826 185.12 28.7584 189.525 24.4875 197.151L26.2325 198.129C30.0256 191.355 39.254 187.12 49.264 187.12V185.12ZM25.36 196.64H23.92V198.64H25.36V196.64ZM24.92 197.64V186.12H22.92V197.64H24.92ZM23.4728 185.226C16.3951 188.764 7.90724 190.88 0.88 190.88V192.88C8.25276 192.88 17.0449 190.676 24.3672 187.014L23.4728 185.226ZM-0.12 191.88V197.64H1.88V191.88H-0.12ZM0.88 198.64H12.4V196.64H0.88V198.64ZM11.4 197.64V288.36H13.4V197.64H11.4ZM11.6929 287.653L8.81289 290.533L10.2271 291.947L13.1071 289.067L11.6929 287.653ZM9.52 290.24H0.88V292.24H9.52V290.24ZM-0.12 291.24V297H1.88V291.24H-0.12ZM45.808 254.24C39.8126 254.24 34.9916 252.011 31.6523 248.028C28.2966 244.025 26.36 238.155 26.36 230.76H24.36C24.36 238.485 26.3834 244.855 30.1197 249.312C33.8724 253.789 39.2754 256.24 45.808 256.24V254.24ZM26.36 230.76V216.36H24.36V230.76H26.36ZM26.36 216.36C26.36 203.846 34.6531 194.32 46.384 194.32V192.32C33.3469 192.32 24.36 202.954 24.36 216.36H26.36ZM46.384 194.32C52.7659 194.32 58.0087 196.98 61.6878 201.994C65.3915 207.041 67.56 214.549 67.56 224.28H69.56C69.56 214.283 67.3365 206.311 63.3002 200.81C59.2393 195.276 53.3941 192.32 46.384 192.32V194.32ZM67.56 224.28C67.56 233.942 65.4264 241.446 61.6727 246.508C57.946 251.534 52.5622 254.24 45.808 254.24V256.24C53.1658 256.24 59.158 253.258 63.2793 247.7C67.3736 242.178 69.56 234.202 69.56 224.28H67.56ZM133.309 249.048V248.048H132.716L132.431 248.569L133.309 249.048ZM134.749 249.048H135.749V248.048H134.749V249.048ZM134.749 261H133.749V262H134.749V261ZM157.789 261V262H158.789V261H157.789ZM157.789 255.24H158.789V254.24H157.789V255.24ZM149.149 255.24L148.442 255.947L148.735 256.24H149.149V255.24ZM146.269 252.36H145.269V252.774L145.562 253.067L146.269 252.36ZM91.5494 207.72L92.5478 207.775L92.548 207.772L91.5494 207.72ZM90.8294 220.68L89.8309 220.625L89.7401 222.258L91.2355 221.594L90.8294 220.68ZM103.789 214.92L104.196 215.834L104.789 215.57V214.92H103.789ZM133.309 219.24L133.55 220.211L134.309 220.023V219.24H133.309ZM118.189 222.984L118.429 223.955L118.43 223.955L118.189 222.984ZM133.309 225.72H134.309V224.473L133.092 224.744L133.309 225.72ZM109.405 263.44C121.287 263.44 129.69 257.772 134.187 249.527L132.431 248.569C128.289 256.164 120.564 261.44 109.405 261.44V263.44ZM133.309 250.048H134.749V248.048H133.309V250.048ZM133.749 249.048V261H135.749V249.048H133.749ZM134.749 262H157.789V260H134.749V262ZM158.789 261V255.24H156.789V261H158.789ZM157.789 254.24H149.149V256.24H157.789V254.24ZM149.856 254.533L146.976 251.653L145.562 253.067L148.442 255.947L149.856 254.533ZM147.269 252.36V209.16H145.269V252.36H147.269ZM147.269 209.16C147.269 201.505 144.695 195.44 139.727 191.309C134.787 187.202 127.615 185.12 118.621 185.12V187.12C127.34 187.12 133.992 189.142 138.448 192.847C142.876 196.528 145.269 201.983 145.269 209.16H147.269ZM118.621 185.12C110.197 185.12 103.362 187.097 98.5222 190.954C93.6582 194.83 90.9233 200.514 90.5507 207.668L92.548 207.772C92.8954 201.102 95.4165 195.986 99.7686 192.518C104.144 189.031 110.485 187.12 118.621 187.12V185.12ZM90.5509 207.665L89.8309 220.625L91.8278 220.735L92.5478 207.775L90.5509 207.665ZM91.2355 221.594L104.196 215.834L103.383 214.006L90.4232 219.766L91.2355 221.594ZM104.789 214.92V204.84H102.789V214.92H104.789ZM104.789 204.84C104.789 200.886 106.043 197.944 108.268 195.977C110.511 193.994 113.88 192.88 118.333 192.88V190.88C113.571 190.88 109.667 192.07 106.943 194.479C104.2 196.904 102.789 200.442 102.789 204.84H104.789ZM118.333 192.88C123.009 192.88 126.447 194.349 128.735 197.014C131.044 199.703 132.309 203.755 132.309 209.16H134.309C134.309 203.477 132.982 198.889 130.252 195.71C127.5 192.507 123.45 190.88 118.333 190.88V192.88ZM132.309 209.16V219.24H134.309V209.16H132.309ZM133.069 218.269L117.949 222.013L118.43 223.955L133.55 220.211L133.069 218.269ZM117.95 222.013C106.553 224.826 98.6445 227.816 93.5774 231.616C91.0271 233.529 89.1776 235.66 87.9715 238.092C86.7656 240.523 86.2294 243.201 86.2294 246.168H88.2294C88.2294 243.447 88.7192 241.085 89.7632 238.98C90.8071 236.876 92.4317 234.975 94.7774 233.216C99.5023 229.672 107.074 226.758 118.429 223.955L117.95 222.013ZM86.2294 246.168C86.2294 251.707 88.3339 256.09 92.3807 259.053C96.3803 261.981 102.165 263.44 109.405 263.44V261.44C102.39 261.44 97.0864 260.019 93.5621 257.439C90.0848 254.894 88.2294 251.141 88.2294 246.168H86.2294ZM112.717 254.24C109.043 254.24 106.359 253.372 104.606 251.856C102.876 250.36 101.909 248.109 101.909 245.016H99.9094C99.9094 248.547 101.031 251.408 103.297 253.368C105.54 255.308 108.76 256.24 112.717 256.24V254.24ZM101.909 245.016C101.909 242.955 102.396 241.158 103.45 239.526C104.513 237.882 106.189 236.346 108.657 234.877C113.62 231.924 121.582 229.359 133.527 226.696L133.092 224.744C121.133 227.409 112.895 230.028 107.634 233.159C104.99 234.732 103.048 236.463 101.77 238.441C100.485 240.432 99.9094 242.613 99.9094 245.016H101.909ZM132.309 225.72V227.88H134.309V225.72H132.309ZM132.309 227.88C132.309 235.123 130.304 241.749 126.847 246.537C123.4 251.31 118.534 254.24 112.717 254.24V256.24C119.285 256.24 124.714 252.906 128.468 247.707C132.211 242.523 134.309 235.469 134.309 227.88H132.309ZM165.754 170.28H164.754V171.28H165.754V170.28ZM183.034 170.28V171.28H184.034V170.28H183.034ZM183.034 153H184.034V152H183.034V153ZM165.754 153V152H164.754V153H165.754ZM157.114 261H156.114V262H157.114V261ZM193.114 261V262H194.114V261H193.114ZM193.114 255.24H194.114V254.24H193.114V255.24ZM184.474 255.24L183.767 255.947L184.06 256.24H184.474V255.24ZM181.594 252.36H180.594V252.774L180.887 253.067L181.594 252.36ZM181.594 186.12H182.594V184.502L181.147 185.226L181.594 186.12ZM157.114 191.88V190.88H156.114V191.88H157.114ZM157.114 197.64H156.114V198.64H157.114V197.64ZM168.634 197.64H169.634V196.64H168.634V197.64ZM168.634 252.36L169.341 253.067L169.634 252.774V252.36H168.634ZM165.754 255.24V256.24H166.169L166.461 255.947L165.754 255.24ZM157.114 255.24V254.24H156.114V255.24H157.114ZM165.754 171.28H183.034V169.28H165.754V171.28ZM184.034 170.28V153H182.034V170.28H184.034ZM183.034 152H165.754V154H183.034V152ZM164.754 153V170.28H166.754V153H164.754ZM157.114 262H193.114V260H157.114V262ZM194.114 261V255.24H192.114V261H194.114ZM193.114 254.24H184.474V256.24H193.114V254.24ZM185.181 254.533L182.301 251.653L180.887 253.067L183.767 255.947L185.181 254.533ZM182.594 252.36V186.12H180.594V252.36H182.594ZM181.147 185.226C174.087 188.756 165.024 190.88 157.114 190.88V192.88C165.332 192.88 174.702 190.684 182.042 187.014L181.147 185.226ZM156.114 191.88V197.64H158.114V191.88H156.114ZM157.114 198.64H168.634V196.64H157.114V198.64ZM167.634 197.64V252.36H169.634V197.64H167.634ZM167.927 251.653L165.047 254.533L166.461 255.947L169.341 253.067L167.927 251.653ZM165.754 254.24H157.114V256.24H165.754V254.24ZM156.114 255.24V261H158.114V255.24H156.114ZM191.612 261H190.612V262H191.612V261ZM278.013 261V262H279.013V261H278.013ZM278.013 255.24H279.013V254.24H278.013V255.24ZM269.372 255.24L268.665 255.947L268.958 256.24H269.372V255.24ZM266.492 252.36H265.492V252.774L265.785 253.067L266.492 252.36ZM216.092 199.08V200.08H216.633L216.929 199.628L216.092 199.08ZM214.652 199.08H213.652V200.08H214.652V199.08ZM214.652 186.12H215.652V184.502L214.205 185.226L214.652 186.12ZM191.612 191.88V190.88H190.612V191.88H191.612ZM191.612 197.64H190.612V198.64H191.612V197.64ZM203.132 197.64H204.132V196.64H203.132V197.64ZM203.132 252.36L203.84 253.067L204.132 252.774V252.36H203.132ZM200.253 255.24V256.24H200.667L200.96 255.947L200.253 255.24ZM191.612 255.24V254.24H190.612V255.24H191.612ZM218.972 255.24L218.265 255.947L218.558 256.24H218.972V255.24ZM216.092 252.36H215.092V252.774L215.385 253.067L216.092 252.36ZM253.533 252.36L254.24 253.067L254.533 252.774V252.36H253.533ZM250.652 255.24V256.24H251.067L251.36 255.947L250.652 255.24ZM191.612 262H278.013V260H191.612V262ZM279.013 261V255.24H277.013V261H279.013ZM278.013 254.24H269.372V256.24H278.013V254.24ZM270.08 254.533L267.2 251.653L265.785 253.067L268.665 255.947L270.08 254.533ZM267.492 252.36V212.04H265.492V252.36H267.492ZM267.492 212.04C267.492 203.456 265.291 196.694 260.919 192.075C256.539 187.447 250.122 185.12 242.012 185.12V187.12C249.743 187.12 255.566 189.329 259.466 193.449C263.374 197.578 265.492 203.776 265.492 212.04H267.492ZM242.012 185.12C230.346 185.12 220.937 189.861 215.256 198.532L216.929 199.628C222.192 191.595 230.927 187.12 242.012 187.12V185.12ZM216.092 198.08H214.652V200.08H216.092V198.08ZM215.652 199.08V186.12H213.652V199.08H215.652ZM214.205 185.226C207.128 188.764 198.64 190.88 191.612 190.88V192.88C198.985 192.88 207.777 190.676 215.1 187.014L214.205 185.226ZM190.612 191.88V197.64H192.612V191.88H190.612ZM191.612 198.64H203.132V196.64H191.612V198.64ZM202.132 197.64V252.36H204.132V197.64H202.132ZM202.425 251.653L199.545 254.533L200.96 255.947L203.84 253.067L202.425 251.653ZM200.253 254.24H191.612V256.24H200.253V254.24ZM190.612 255.24V261H192.612V255.24H190.612ZM219.68 254.533L216.8 251.653L215.385 253.067L218.265 255.947L219.68 254.533ZM217.092 252.36V219.24H215.092V252.36H217.092ZM217.092 219.24C217.092 211.466 218.966 205.617 222.404 201.722C225.824 197.847 230.921 195.76 237.693 195.76V193.76C230.495 193.76 224.793 195.993 220.905 200.398C217.035 204.783 215.092 211.174 215.092 219.24H217.092ZM237.693 195.76C242.554 195.76 246.201 197.424 248.661 200.545C251.152 203.704 252.533 208.49 252.533 214.92H254.533C254.533 208.246 253.105 202.952 250.232 199.307C247.328 195.624 243.055 193.76 237.693 193.76V195.76ZM252.533 214.92V252.36H254.533V214.92H252.533ZM252.825 251.653L249.945 254.533L251.36 255.947L254.24 253.067L252.825 251.653ZM250.652 254.24H218.972V256.24H250.652V254.24ZM323.462 229.32H324.462V228.377L323.521 228.322L323.462 229.32ZM318.566 229.032L318.625 228.034L317.575 227.972L317.567 229.024L318.566 229.032ZM296.103 194.76V193.76H295.103V194.76H296.103ZM319.142 194.76V195.76H320.142V194.76H319.142ZM319.142 189H320.142V188H319.142V189ZM296.103 189H295.103V190H296.103V189ZM296.103 164.52H297.103V163.52H296.103V164.52ZM293.223 164.52V163.52H292.396L292.24 164.331L293.223 164.52ZM270.182 191.88L269.86 190.933L269.182 191.164V191.88H270.182ZM270.182 194.76H269.182V195.76H270.182V194.76ZM283.142 194.76H284.142V193.76H283.142V194.76ZM301.719 263.44C309.589 263.44 315.36 260.339 319.106 254.406C322.802 248.553 324.462 240.046 324.462 229.32H322.462C322.462 239.906 320.811 247.959 317.415 253.338C314.069 258.637 308.968 261.44 301.719 261.44V263.44ZM323.521 228.322L318.625 228.034L318.508 230.03L323.404 230.318L323.521 228.322ZM317.567 229.024C317.495 238.079 315.924 244.432 313.53 248.485C311.16 252.497 308.006 254.24 304.598 254.24V256.24C308.823 256.24 312.581 254.023 315.251 249.503C317.897 245.025 319.494 238.273 319.566 229.04L317.567 229.024ZM304.598 254.24C302.354 254.24 300.514 253.383 299.22 251.872C297.915 250.347 297.103 248.075 297.103 245.16H295.103C295.103 248.437 296.018 251.205 297.701 253.172C299.395 255.153 301.803 256.24 304.598 256.24V254.24ZM297.103 245.16V194.76H295.103V245.16H297.103ZM296.103 195.76H319.142V193.76H296.103V195.76ZM320.142 194.76V189H318.142V194.76H320.142ZM319.142 188H296.103V190H319.142V188ZM297.103 189V164.52H295.103V189H297.103ZM296.103 163.52H293.223V165.52H296.103V163.52ZM292.24 164.331C290.825 171.693 288.292 177.279 284.617 181.543C280.943 185.806 276.07 188.816 269.86 190.933L270.505 192.827C276.967 190.623 282.174 187.442 286.132 182.849C290.089 178.257 292.74 172.323 294.204 164.709L292.24 164.331ZM269.182 191.88V194.76H271.182V191.88H269.182ZM270.182 195.76H283.142V193.76H270.182V195.76ZM282.142 194.76V245.16H284.142V194.76H282.142ZM282.142 245.16C282.142 250.723 284.029 255.324 287.485 258.529C290.932 261.726 295.839 263.44 301.719 263.44V261.44C296.222 261.44 291.841 259.842 288.844 257.063C285.856 254.292 284.142 250.253 284.142 245.16H282.142ZM329.999 170.28H328.999V171.28H329.999V170.28ZM347.279 170.28V171.28H348.279V170.28H347.279ZM347.279 153H348.279V152H347.279V153ZM329.999 153V152H328.999V153H329.999ZM321.359 261H320.359V262H321.359V261ZM357.359 261V262H358.359V261H357.359ZM357.359 255.24H358.359V254.24H357.359V255.24ZM348.719 255.24L348.012 255.947L348.305 256.24H348.719V255.24ZM345.839 252.36H344.839V252.774L345.132 253.067L345.839 252.36ZM345.839 186.12H346.839V184.502L345.392 185.226L345.839 186.12ZM321.359 191.88V190.88H320.359V191.88H321.359ZM321.359 197.64H320.359V198.64H321.359V197.64ZM332.879 197.64H333.879V196.64H332.879V197.64ZM332.879 252.36L333.586 253.067L333.879 252.774V252.36H332.879ZM329.999 255.24V256.24H330.413L330.706 255.947L329.999 255.24ZM321.359 255.24V254.24H320.359V255.24H321.359ZM329.999 171.28H347.279V169.28H329.999V171.28ZM348.279 170.28V153H346.279V170.28H348.279ZM347.279 152H329.999V154H347.279V152ZM328.999 153V170.28H330.999V153H328.999ZM321.359 262H357.359V260H321.359V262ZM358.359 261V255.24H356.359V261H358.359ZM357.359 254.24H348.719V256.24H357.359V254.24ZM349.426 254.533L346.546 251.653L345.132 253.067L348.012 255.947L349.426 254.533ZM346.839 252.36V186.12H344.839V252.36H346.839ZM345.392 185.226C338.332 188.756 329.269 190.88 321.359 190.88V192.88C329.577 192.88 338.946 190.684 346.286 187.014L345.392 185.226ZM320.359 191.88V197.64H322.359V191.88H320.359ZM321.359 198.64H332.879V196.64H321.359V198.64ZM331.879 197.64V252.36H333.879V197.64H331.879ZM332.172 251.653L329.292 254.533L330.706 255.947L333.586 253.067L332.172 251.653ZM329.999 254.24H321.359V256.24H329.999V254.24ZM320.359 255.24V261H322.359V255.24H320.359ZM355.857 261H354.857V262H355.857V261ZM442.257 261V262H443.257V261H442.257ZM442.257 255.24H443.257V254.24H442.257V255.24ZM433.617 255.24L432.91 255.947L433.203 256.24H433.617V255.24ZM430.737 252.36H429.737V252.774L430.03 253.067L430.737 252.36ZM380.337 199.08V200.08H380.877L381.173 199.628L380.337 199.08ZM378.897 199.08H377.897V200.08H378.897V199.08ZM378.897 186.12H379.897V184.502L378.45 185.226L378.897 186.12ZM355.857 191.88V190.88H354.857V191.88H355.857ZM355.857 197.64H354.857V198.64H355.857V197.64ZM367.377 197.64H368.377V196.64H367.377V197.64ZM367.377 252.36L368.084 253.067L368.377 252.774V252.36H367.377ZM364.497 255.24V256.24H364.911L365.204 255.947L364.497 255.24ZM355.857 255.24V254.24H354.857V255.24H355.857ZM383.217 255.24L382.51 255.947L382.803 256.24H383.217V255.24ZM380.337 252.36H379.337V252.774L379.63 253.067L380.337 252.36ZM417.777 252.36L418.484 253.067L418.777 252.774V252.36H417.777ZM414.897 255.24V256.24H415.311L415.604 255.947L414.897 255.24ZM355.857 262H442.257V260H355.857V262ZM443.257 261V255.24H441.257V261H443.257ZM442.257 254.24H433.617V256.24H442.257V254.24ZM434.324 254.533L431.444 251.653L430.03 253.067L432.91 255.947L434.324 254.533ZM431.737 252.36V212.04H429.737V252.36H431.737ZM431.737 212.04C431.737 203.456 429.535 196.694 425.163 192.075C420.783 187.447 414.367 185.12 406.257 185.12V187.12C413.987 187.12 419.811 189.329 423.711 193.449C427.619 197.578 429.737 203.776 429.737 212.04H431.737ZM406.257 185.12C394.591 185.12 385.181 189.861 379.5 198.532L381.173 199.628C386.436 191.595 395.171 187.12 406.257 187.12V185.12ZM380.337 198.08H378.897V200.08H380.337V198.08ZM379.897 199.08V186.12H377.897V199.08H379.897ZM378.45 185.226C371.372 188.764 362.884 190.88 355.857 190.88V192.88C363.23 192.88 372.022 190.676 379.344 187.014L378.45 185.226ZM354.857 191.88V197.64H356.857V191.88H354.857ZM355.857 198.64H367.377V196.64H355.857V198.64ZM366.377 197.64V252.36H368.377V197.64H366.377ZM366.67 251.653L363.79 254.533L365.204 255.947L368.084 253.067L366.67 251.653ZM364.497 254.24H355.857V256.24H364.497V254.24ZM354.857 255.24V261H356.857V255.24H354.857ZM383.924 254.533L381.044 251.653L379.63 253.067L382.51 255.947L383.924 254.533ZM381.337 252.36V219.24H379.337V252.36H381.337ZM381.337 219.24C381.337 211.466 383.211 205.617 386.649 201.722C390.069 197.847 395.166 195.76 401.937 195.76V193.76C394.74 193.76 389.037 195.993 385.149 200.398C381.279 204.783 379.337 211.174 379.337 219.24H381.337ZM401.937 195.76C406.798 195.76 410.445 197.424 412.906 200.545C415.396 203.704 416.777 208.49 416.777 214.92H418.777C418.777 208.246 417.35 202.952 414.476 199.307C411.573 195.624 407.299 193.76 401.937 193.76V195.76ZM416.777 214.92V252.36H418.777V214.92H416.777ZM417.07 251.653L414.19 254.533L415.604 255.947L418.484 253.067L417.07 251.653ZM414.897 254.24H383.217V256.24H414.897V254.24ZM483.607 249.768L483.501 250.762L483.503 250.763L483.607 249.768ZM471.511 248.472L471.399 249.466L471.405 249.466L471.511 248.472ZM458.839 239.4L458.745 238.405L457.701 238.504L457.849 239.541L458.839 239.4ZM473.959 237.96L473.869 236.964L473.865 236.965L473.959 237.96ZM498.151 199.368L497.444 198.661L496.918 199.187L497.271 199.842L498.151 199.368ZM499.879 197.64V196.64H499.465L499.172 196.933L499.879 197.64ZM514.999 197.64V198.64H515.846L515.986 197.804L514.999 197.64ZM517.159 184.68L518.146 184.844L518.354 183.592L517.088 183.683L517.159 184.68ZM507.079 185.4L507.132 186.399L507.141 186.398L507.151 186.397L507.079 185.4ZM494.695 194.616L493.959 195.293L495.013 196.439L495.617 195.004L494.695 194.616ZM460.999 233.64H461.999V232.934L461.335 232.698L460.999 233.64ZM460.999 235.08L461.095 236.075L461.999 235.988V235.08H460.999ZM446.023 236.52L445.928 235.525L445.023 235.612V236.52H446.023ZM468.343 259.992L468.226 260.985L468.228 260.985L468.343 259.992ZM480.727 261.432L480.612 262.425L480.727 261.432ZM455.239 265.32H456.239V264.5L455.435 264.339L455.239 265.32ZM440.839 262.44L441.035 261.459L439.76 261.204L439.841 262.502L440.839 262.44ZM441.559 273.96L440.561 274.022L440.562 274.029L441.559 273.96ZM475.687 298C486.691 298 495.671 295.561 501.928 290.985C508.221 286.383 511.679 279.672 511.679 271.368H509.679C509.679 279.048 506.514 285.153 500.747 289.371C494.944 293.615 486.428 296 475.687 296V298ZM511.679 271.368C511.679 265.635 509.631 260.453 505.035 256.465C500.469 252.503 493.476 249.794 483.711 248.773L483.503 250.763C493.034 251.758 499.578 254.378 503.724 257.975C507.84 261.547 509.679 266.157 509.679 271.368H511.679ZM483.714 248.774L471.618 247.478L471.405 249.466L483.501 250.762L483.714 248.774ZM471.624 247.478C467.232 246.983 464.458 246.005 462.708 244.656C461.004 243.343 460.163 241.594 459.829 239.259L457.849 239.541C458.236 242.246 459.267 244.529 461.487 246.24C463.661 247.915 466.862 248.953 471.399 249.466L471.624 247.478ZM458.934 240.396L474.054 238.955L473.865 236.965L458.745 238.405L458.934 240.396ZM474.05 238.956C482.871 238.154 489.957 235.773 494.844 231.358C499.763 226.914 502.319 220.533 502.319 212.04H500.319C500.319 220.107 497.908 225.894 493.503 229.874C489.066 233.883 482.472 236.182 473.869 236.964L474.05 238.956ZM502.319 212.04C502.319 207.117 501.124 202.779 499.032 198.894L497.271 199.842C499.211 203.445 500.319 207.459 500.319 212.04H502.319ZM498.858 200.075L500.586 198.347L499.172 196.933L497.444 198.661L498.858 200.075ZM499.879 198.64H514.999V196.64H499.879V198.64ZM515.986 197.804L518.146 184.844L516.173 184.516L514.013 197.476L515.986 197.804ZM517.088 183.683L507.008 184.403L507.151 186.397L517.231 185.677L517.088 183.683ZM507.027 184.401C501.129 184.712 496.209 188.445 493.774 194.228L495.617 195.004C497.79 189.843 502.086 186.664 507.132 186.399L507.027 184.401ZM495.432 193.939C490.327 188.384 482.705 185.12 473.959 185.12V187.12C482.205 187.12 489.272 190.192 493.959 195.293L495.432 193.939ZM473.959 185.12C457.906 185.12 445.599 196.751 445.599 212.04H447.599C447.599 197.953 458.909 187.12 473.959 187.12V185.12ZM445.599 212.04C445.599 222.065 451.728 231.402 460.664 234.582L461.335 232.698C453.279 229.831 447.599 221.311 447.599 212.04H445.599ZM459.999 233.64V235.08H461.999V233.64H459.999ZM460.904 234.085L445.928 235.525L446.119 237.515L461.095 236.075L460.904 234.085ZM445.023 236.52C445.023 244.485 446.665 250.199 450.529 254.14C454.372 258.06 460.236 260.041 468.226 260.985L468.461 258.999C460.611 258.071 455.314 256.164 451.957 252.74C448.622 249.337 447.023 244.251 447.023 236.52H445.023ZM468.228 260.985L480.612 262.425L480.843 260.439L468.459 258.999L468.228 260.985ZM480.612 262.425C486.679 263.131 491.078 264.918 493.941 267.343C496.78 269.748 498.159 272.818 498.159 276.264H500.159C500.159 272.222 498.515 268.596 495.234 265.817C491.977 263.058 487.159 261.173 480.843 260.439L480.612 262.425ZM498.159 276.264C498.159 280.453 496.285 283.893 492.694 286.326C489.065 288.786 483.633 290.24 476.551 290.24V292.24C483.87 292.24 489.742 290.742 493.816 287.982C497.93 285.195 500.159 281.147 500.159 276.264H498.159ZM476.551 290.24C469.814 290.24 464.713 288.96 461.326 286.668C457.992 284.412 456.239 281.127 456.239 276.84H454.239C454.239 281.769 456.303 285.684 460.205 288.324C464.054 290.928 469.609 292.24 476.551 292.24V290.24ZM456.239 276.84V265.32H454.239V276.84H456.239ZM455.435 264.339L441.035 261.459L440.643 263.421L455.043 266.301L455.435 264.339ZM439.841 262.502L440.561 274.022L442.557 273.898L441.837 262.378L439.841 262.502ZM440.562 274.029C441.087 281.612 444.672 287.651 450.775 291.763C456.843 295.853 465.341 298 475.687 298V296C465.586 296 457.523 293.899 451.892 290.105C446.295 286.333 443.039 280.852 442.557 273.891L440.562 274.029ZM473.959 231.2C469.885 231.2 466.781 229.553 464.653 226.418C462.488 223.23 461.279 218.418 461.279 212.04H459.279C459.279 218.622 460.519 223.89 462.998 227.542C465.514 231.247 469.25 233.2 473.959 233.2V231.2ZM461.279 212.04C461.279 205.662 462.488 200.85 464.653 197.662C466.781 194.527 469.885 192.88 473.959 192.88V190.88C469.25 190.88 465.514 192.833 462.998 196.538C460.519 200.19 459.279 205.458 459.279 212.04H461.279ZM473.959 192.88C478.034 192.88 481.138 194.527 483.266 197.662C485.431 200.85 486.639 205.662 486.639 212.04H488.639C488.639 205.458 487.4 200.19 484.921 196.538C482.405 192.833 478.669 190.88 473.959 190.88V192.88ZM486.639 212.04C486.639 218.418 485.431 223.23 483.266 226.418C481.138 229.553 478.034 231.2 473.959 231.2V233.2C478.669 233.2 482.405 231.247 484.921 227.542C487.4 223.89 488.639 218.622 488.639 212.04H486.639Z" fill="#B9BDC5"/>
</svg>
