<svg width="679" height="297" viewBox="0 0 679 297" fill="none" xmlns="http://www.w3.org/2000/svg">
<path d="M0.76 147L12.28 146.28C18.328 145.992 25.528 142.392 31 136.92L43.96 123.816V14.52L46.84 11.64H55.48V5.88H18.04V11.64H26.68L29.56 14.52V128.28L26.68 131.16H3.64L0.76 147ZM90.7319 112.44C113.196 112.44 128.172 97.608 128.172 74.28C128.172 50.952 113.196 36.12 90.7319 36.12C68.2679 36.12 53.2919 50.952 53.2919 74.28C53.2919 97.608 68.2679 112.44 90.7319 112.44ZM90.7319 105.96C76.0439 105.96 67.6919 95.016 67.6919 74.28C67.6919 53.544 76.0439 42.6 90.7319 42.6C105.42 42.6 113.772 53.544 113.772 74.28C113.772 95.016 105.42 105.96 90.7319 105.96ZM205.949 105.24L203.069 102.36V39H128.189V44.76H136.829L139.709 47.64V86.52C139.709 103.368 148.349 112.44 164.189 112.44C175.565 112.44 184.637 107.832 190.109 99.48H191.549V111H214.589V105.24H205.949ZM190.109 79.32C190.109 95.16 182.477 103.8 168.509 103.8C158.285 103.8 152.669 96.744 152.669 83.64V44.76H187.229L190.109 47.64V79.32ZM213.081 111H263.481V105.24H240.441L237.561 102.36V73.56C237.561 59.304 244.617 50.52 256.281 50.52H267.801L270.681 36.12L259.161 36.84C249.657 37.416 241.449 44.328 237.561 54.84H236.121V36.12C228.921 39.72 220.281 41.88 213.081 41.88V47.64H224.601V102.36L221.721 105.24H213.081V111ZM269.236 111H355.636V105.24H346.996L344.116 102.36V62.04C344.116 45.192 335.476 36.12 319.636 36.12C308.26 36.12 299.188 40.728 293.716 49.08H292.276V36.12C285.076 39.72 276.436 41.88 269.236 41.88V47.64H280.756V102.36L277.876 105.24H269.236V111ZM296.596 105.24L293.716 102.36V69.24C293.716 53.4 301.348 44.76 315.316 44.76C325.54 44.76 331.156 51.816 331.156 64.92V102.36L328.276 105.24H296.596ZM378.554 112.44C390.074 112.44 398.138 106.968 402.458 99.048H403.898V111H426.938V105.24H418.298L415.418 102.36V59.16C415.418 44.328 405.482 36.12 387.77 36.12C371.21 36.12 361.418 43.896 360.698 57.72L359.978 70.68L372.938 64.92V54.84C372.938 46.488 378.266 41.88 387.482 41.88C397.274 41.88 402.458 48.072 402.458 59.16V69.24L387.338 72.984C364.586 78.6 356.378 84.792 356.378 96.168C356.378 106.68 364.298 112.44 378.554 112.44ZM381.866 105.24C374.234 105.24 370.058 101.64 370.058 95.016C370.058 86.088 378.554 81.048 402.458 75.72V77.88C402.458 92.712 394.25 105.24 381.866 105.24ZM426.263 111H462.263V105.24H453.623L450.743 102.36V0.119994C443.543 3.71999 434.327 5.88 426.263 5.88V11.64H437.783V102.36L434.903 105.24H426.263V111ZM495.209 111H547.049V105.24H526.889L524.009 102.36V44.76H547.049V39H524.009V17.4L526.889 14.52H551.369L554.249 0.119994L542.729 0.839993C536.681 1.128 529.481 4.72799 524.009 10.2L511.049 23.16V39H495.209V44.76H511.049V102.36L508.169 105.24H495.209V111ZM581.592 112.44C604.056 112.44 619.032 97.608 619.032 74.28C619.032 50.952 604.056 36.12 581.592 36.12C559.128 36.12 544.152 50.952 544.152 74.28C544.152 97.608 559.128 112.44 581.592 112.44ZM581.592 105.96C566.904 105.96 558.552 95.016 558.552 74.28C558.552 53.544 566.904 42.6 581.592 42.6C596.28 42.6 604.632 53.544 604.632 74.28C604.632 95.016 596.28 105.96 581.592 105.96ZM621.209 111H671.609V105.24H648.569L645.689 102.36V73.56C645.689 59.304 652.745 50.52 664.409 50.52H675.929L678.809 36.12L667.289 36.84C657.785 37.416 649.577 44.328 645.689 54.84H644.249V36.12C637.049 39.72 628.409 41.88 621.209 41.88V47.64H632.729V102.36L629.849 105.24H621.209V111ZM46.84 261H53.32L71.176 212.76H72.616L89.32 261H96.52L121 194.76H129.64V189H14.44V194.76H23.08L46.84 261ZM52.744 241.272L37.48 197.64L40.36 194.76H71.896L54.184 241.272H52.744ZM95.8 241.272L78.376 194.76H110.488L113.368 197.64L97.24 241.272H95.8ZM126.085 261H176.485V255.24H153.445L150.565 252.36V223.56C150.565 209.304 157.621 200.52 169.285 200.52H180.805L183.685 186.12L172.165 186.84C162.661 187.416 154.453 194.328 150.565 204.84H149.125V186.12C141.925 189.72 133.285 191.88 126.085 191.88V197.64H137.605V252.36L134.725 255.24H126.085V261ZM190.879 170.28H208.159V153H190.879V170.28ZM182.239 261H218.239V255.24H209.599L206.719 252.36V186.12C199.519 189.72 190.303 191.88 182.239 191.88V197.64H193.759V252.36L190.879 255.24H182.239V261ZM244.673 262.44C259.793 262.44 266.417 250.632 266.417 229.32L261.521 229.032C261.377 247.32 255.185 255.24 247.553 255.24C242.513 255.24 239.057 251.352 239.057 245.16V194.76H262.097V189H239.057V164.52H236.177C233.297 179.496 225.809 187.56 213.137 191.88V194.76H226.097V245.16C226.097 255.816 233.297 262.44 244.673 262.44ZM272.954 170.28H290.234V153H272.954V170.28ZM264.314 261H300.314V255.24H291.674L288.794 252.36V186.12C281.594 189.72 272.378 191.88 264.314 191.88V197.64H275.834V252.36L272.954 255.24H264.314V261ZM298.812 261H385.212V255.24H376.572L373.692 252.36V212.04C373.692 195.192 365.052 186.12 349.212 186.12C337.836 186.12 328.764 190.728 323.292 199.08H321.852V186.12C314.652 189.72 306.012 191.88 298.812 191.88V197.64H310.332V252.36L307.452 255.24H298.812V261ZM326.172 255.24L323.292 252.36V219.24C323.292 203.4 330.924 194.76 344.892 194.76C355.116 194.76 360.732 201.816 360.732 214.92V252.36L357.852 255.24H326.172ZM418.642 297C440.386 297 453.634 287.352 453.634 271.368C453.634 260.424 445.858 251.784 426.562 249.768L414.466 248.472C405.538 247.464 402.514 244.44 401.794 239.4L416.914 237.96C434.338 236.376 444.274 228.6 444.274 212.04C444.274 207.288 443.122 203.112 441.106 199.368L442.834 197.64H457.954L460.114 184.68L450.034 185.4C444.562 185.688 439.954 189.144 437.65 194.616C432.754 189.288 425.41 186.12 416.914 186.12C401.362 186.12 389.554 197.352 389.554 212.04C389.554 221.688 395.458 230.616 403.954 233.64V235.08L388.978 236.52C388.978 252.216 395.458 258.12 411.298 259.992L423.682 261.432C436.066 262.872 442.114 268.776 442.114 276.264C442.114 285.336 433.906 291.24 419.506 291.24C405.826 291.24 398.194 286.056 398.194 276.84V265.32L383.794 262.44L384.514 273.96C385.522 288.504 398.194 297 418.642 297ZM416.914 232.2C408.13 232.2 403.234 225 403.234 212.04C403.234 199.08 408.13 191.88 416.914 191.88C425.698 191.88 430.594 199.08 430.594 212.04C430.594 225 425.698 232.2 416.914 232.2Z" fill="#B9BDC5" fill-opacity="0.05"/>
<path d="M0.76 147L-0.22387 146.821L-0.452344 148.078L0.822378 147.998L0.76 147ZM12.28 146.28L12.2324 145.281L12.225 145.281L12.2176 145.282L12.28 146.28ZM31 136.92L31.7071 137.627L31.711 137.623L31 136.92ZM43.96 123.816L44.671 124.519L44.96 124.227V123.816H43.96ZM43.96 14.52L43.2529 13.8129L42.96 14.1058V14.52H43.96ZM46.84 11.64V10.64H46.4258L46.1329 10.9329L46.84 11.64ZM55.48 11.64V12.64H56.48V11.64H55.48ZM55.48 5.88H56.48V4.88H55.48V5.88ZM18.04 5.88V4.88H17.04V5.88H18.04ZM18.04 11.64H17.04V12.64H18.04V11.64ZM26.68 11.64L27.3871 10.9329L27.0942 10.64H26.68V11.64ZM29.56 14.52H30.56V14.1058L30.2671 13.8129L29.56 14.52ZM29.56 128.28L30.2671 128.987L30.56 128.694V128.28H29.56ZM26.68 131.16V132.16H27.0942L27.3871 131.867L26.68 131.16ZM3.64 131.16V130.16H2.80542L2.65613 130.981L3.64 131.16ZM0.822378 147.998L12.3424 147.278L12.2176 145.282L0.697621 146.002L0.822378 147.998ZM12.3276 147.279C18.6873 146.976 26.1098 143.224 31.7071 137.627L30.2929 136.213C24.9462 141.56 17.9687 145.008 12.2324 145.281L12.3276 147.279ZM31.711 137.623L44.671 124.519L43.249 123.113L30.289 136.217L31.711 137.623ZM44.96 123.816V14.52H42.96V123.816H44.96ZM44.6671 15.2271L47.5471 12.3471L46.1329 10.9329L43.2529 13.8129L44.6671 15.2271ZM46.84 12.64H55.48V10.64H46.84V12.64ZM56.48 11.64V5.88H54.48V11.64H56.48ZM55.48 4.88H18.04V6.88H55.48V4.88ZM17.04 5.88V11.64H19.04V5.88H17.04ZM18.04 12.64H26.68V10.64H18.04V12.64ZM25.9729 12.3471L28.8529 15.2271L30.2671 13.8129L27.3871 10.9329L25.9729 12.3471ZM28.56 14.52V128.28H30.56V14.52H28.56ZM28.8529 127.573L25.9729 130.453L27.3871 131.867L30.2671 128.987L28.8529 127.573ZM26.68 130.16H3.64V132.16H26.68V130.16ZM2.65613 130.981L-0.22387 146.821L1.74387 147.179L4.62387 131.339L2.65613 130.981ZM90.7319 113.44C102.189 113.44 111.819 109.653 118.587 102.811C125.354 95.9699 129.172 86.1616 129.172 74.28H127.172C127.172 85.7264 123.502 94.9981 117.165 101.405C110.828 107.811 101.739 111.44 90.7319 111.44V113.44ZM129.172 74.28C129.172 62.3984 125.354 52.5901 118.587 45.7488C111.819 38.9068 102.189 35.12 90.7319 35.12V37.12C101.739 37.12 110.828 40.7492 117.165 47.1552C123.502 53.5619 127.172 62.8336 127.172 74.28H129.172ZM90.7319 35.12C79.275 35.12 69.6445 38.9068 62.8769 45.7488C56.1099 52.5901 52.2919 62.3984 52.2919 74.28H54.2919C54.2919 62.8336 57.9618 53.5619 64.2988 47.1552C70.6353 40.7492 79.7248 37.12 90.7319 37.12V35.12ZM52.2919 74.28C52.2919 86.1616 56.1099 95.9699 62.8769 102.811C69.6445 109.653 79.275 113.44 90.7319 113.44V111.44C79.7248 111.44 70.6353 107.811 64.2988 101.405C57.9618 94.9981 54.2919 85.7264 54.2919 74.28H52.2919ZM90.7319 104.96C83.6668 104.96 78.2226 102.345 74.5091 97.303C70.761 92.2138 68.6919 84.5364 68.6919 74.28H66.6919C66.6919 84.7596 68.7988 92.9222 72.8987 98.489C77.0331 104.103 83.109 106.96 90.7319 106.96V104.96ZM68.6919 74.28C68.6919 64.0236 70.761 56.3462 74.5091 51.257C78.2226 46.2147 83.6668 43.6 90.7319 43.6V41.6C83.109 41.6 77.0331 44.4573 72.8987 50.071C68.7988 55.6378 66.6919 63.8004 66.6919 74.28H68.6919ZM90.7319 43.6C97.797 43.6 103.241 46.2147 106.955 51.257C110.703 56.3462 112.772 64.0236 112.772 74.28H114.772C114.772 63.8004 112.665 55.6378 108.565 50.071C104.431 44.4573 98.3548 41.6 90.7319 41.6V43.6ZM112.772 74.28C112.772 84.5364 110.703 92.2138 106.955 97.303C103.241 102.345 97.797 104.96 90.7319 104.96V106.96C98.3548 106.96 104.431 104.103 108.565 98.489C112.665 92.9222 114.772 84.7596 114.772 74.28H112.772ZM205.949 105.24L205.242 105.947L205.535 106.24H205.949V105.24ZM203.069 102.36H202.069V102.774L202.362 103.067L203.069 102.36ZM203.069 39H204.069V38H203.069V39ZM128.189 39V38H127.189V39H128.189ZM128.189 44.76H127.189V45.76H128.189V44.76ZM136.829 44.76L137.536 44.0529L137.243 43.76H136.829V44.76ZM139.709 47.64H140.709V47.2258L140.416 46.9329L139.709 47.64ZM190.109 99.48V98.48H189.568L189.272 98.932L190.109 99.48ZM191.549 99.48H192.549V98.48H191.549V99.48ZM191.549 111H190.549V112H191.549V111ZM214.589 111V112H215.589V111H214.589ZM214.589 105.24H215.589V104.24H214.589V105.24ZM152.669 44.76V43.76H151.669V44.76H152.669ZM187.229 44.76L187.936 44.0529L187.643 43.76H187.229V44.76ZM190.109 47.64H191.109V47.2258L190.816 46.9329L190.109 47.64ZM206.656 104.533L203.776 101.653L202.362 103.067L205.242 105.947L206.656 104.533ZM204.069 102.36V39H202.069V102.36H204.069ZM203.069 38H128.189V40H203.069V38ZM127.189 39V44.76H129.189V39H127.189ZM128.189 45.76H136.829V43.76H128.189V45.76ZM136.122 45.4671L139.002 48.3471L140.416 46.9329L137.536 44.0529L136.122 45.4671ZM138.709 47.64V86.52H140.709V47.64H138.709ZM138.709 86.52C138.709 95.1045 140.911 101.866 145.282 106.485C149.663 111.113 156.079 113.44 164.189 113.44V111.44C156.459 111.44 150.635 109.231 146.735 105.111C142.827 100.982 140.709 94.7835 140.709 86.52H138.709ZM164.189 113.44C175.855 113.44 185.264 108.699 190.945 100.028L189.272 98.932C184.009 106.965 175.274 111.44 164.189 111.44V113.44ZM190.109 100.48H191.549V98.48H190.109V100.48ZM190.549 99.48V111H192.549V99.48H190.549ZM191.549 112H214.589V110H191.549V112ZM215.589 111V105.24H213.589V111H215.589ZM214.589 104.24H205.949V106.24H214.589V104.24ZM189.109 79.32C189.109 87.0941 187.235 92.9429 183.797 96.8383C180.377 100.713 175.28 102.8 168.509 102.8V104.8C175.706 104.8 181.409 102.567 185.296 98.1617C189.166 93.777 191.109 87.3859 191.109 79.32H189.109ZM168.509 102.8C163.647 102.8 160 101.136 157.54 98.0149C155.049 94.8557 153.669 90.0699 153.669 83.64H151.669C151.669 90.3141 153.096 95.6083 155.969 99.2531C158.873 102.936 163.146 104.8 168.509 104.8V102.8ZM153.669 83.64V44.76H151.669V83.64H153.669ZM152.669 45.76H187.229V43.76H152.669V45.76ZM186.522 45.4671L189.402 48.3471L190.816 46.9329L187.936 44.0529L186.522 45.4671ZM189.109 47.64V79.32H191.109V47.64H189.109ZM213.081 111H212.081V112H213.081V111ZM263.481 111V112H264.481V111H263.481ZM263.481 105.24H264.481V104.24H263.481V105.24ZM240.441 105.24L239.734 105.947L240.027 106.24H240.441V105.24ZM237.561 102.36H236.561V102.774L236.854 103.067L237.561 102.36ZM267.801 50.52V51.52H268.621L268.782 50.7161L267.801 50.52ZM270.681 36.12L271.662 36.3161L271.917 35.0408L270.619 35.1219L270.681 36.12ZM259.161 36.84L259.222 37.8382L259.224 37.838L259.161 36.84ZM237.561 54.84V55.84H238.258L238.499 55.1869L237.561 54.84ZM236.121 54.84H235.121V55.84H236.121V54.84ZM236.121 36.12H237.121V34.502L235.674 35.2256L236.121 36.12ZM213.081 41.88V40.88H212.081V41.88H213.081ZM213.081 47.64H212.081V48.64H213.081V47.64ZM224.601 47.64H225.601V46.64H224.601V47.64ZM224.601 102.36L225.308 103.067L225.601 102.774V102.36H224.601ZM221.721 105.24V106.24H222.135L222.428 105.947L221.721 105.24ZM213.081 105.24V104.24H212.081V105.24H213.081ZM213.081 112H263.481V110H213.081V112ZM264.481 111V105.24H262.481V111H264.481ZM263.481 104.24H240.441V106.24H263.481V104.24ZM241.148 104.533L238.268 101.653L236.854 103.067L239.734 105.947L241.148 104.533ZM238.561 102.36V73.56H236.561V102.36H238.561ZM238.561 73.56C238.561 66.5847 240.288 61.0718 243.324 57.3234C246.34 53.6005 250.723 51.52 256.281 51.52V49.52C250.175 49.52 245.199 51.8315 241.77 56.0646C238.362 60.2722 236.561 66.2793 236.561 73.56H238.561ZM256.281 51.52H267.801V49.52H256.281V51.52ZM268.782 50.7161L271.662 36.3161L269.701 35.9239L266.821 50.3239L268.782 50.7161ZM270.619 35.1219L259.099 35.8419L259.224 37.838L270.744 37.118L270.619 35.1219ZM259.101 35.8418C249.114 36.4471 240.616 43.6991 236.623 54.4931L238.499 55.1869C242.283 44.9569 250.201 38.3849 259.222 37.8382L259.101 35.8418ZM237.561 53.84H236.121V55.84H237.561V53.84ZM237.121 54.84V36.12H235.121V54.84H237.121ZM235.674 35.2256C228.596 38.7644 220.108 40.88 213.081 40.88V42.88C220.454 42.88 229.246 40.6756 236.568 37.0144L235.674 35.2256ZM212.081 41.88V47.64H214.081V41.88H212.081ZM213.081 48.64H224.601V46.64H213.081V48.64ZM223.601 47.64V102.36H225.601V47.64H223.601ZM223.894 101.653L221.014 104.533L222.428 105.947L225.308 103.067L223.894 101.653ZM221.721 104.24H213.081V106.24H221.721V104.24ZM212.081 105.24V111H214.081V105.24H212.081ZM269.236 111H268.236V112H269.236V111ZM355.636 111V112H356.636V111H355.636ZM355.636 105.24H356.636V104.24H355.636V105.24ZM346.996 105.24L346.289 105.947L346.581 106.24H346.996V105.24ZM344.116 102.36H343.116V102.774L343.409 103.067L344.116 102.36ZM293.716 49.08V50.08H294.256L294.552 49.628L293.716 49.08ZM292.276 49.08H291.276V50.08H292.276V49.08ZM292.276 36.12H293.276V34.502L291.828 35.2256L292.276 36.12ZM269.236 41.88V40.88H268.236V41.88H269.236ZM269.236 47.64H268.236V48.64H269.236V47.64ZM280.756 47.64H281.756V46.64H280.756V47.64ZM280.756 102.36L281.463 103.067L281.756 102.774V102.36H280.756ZM277.876 105.24V106.24H278.29L278.583 105.947L277.876 105.24ZM269.236 105.24V104.24H268.236V105.24H269.236ZM296.596 105.24L295.889 105.947L296.181 106.24H296.596V105.24ZM293.716 102.36H292.716V102.774L293.009 103.067L293.716 102.36ZM331.156 102.36L331.863 103.067L332.156 102.774V102.36H331.156ZM328.276 105.24V106.24H328.69L328.983 105.947L328.276 105.24ZM269.236 112H355.636V110H269.236V112ZM356.636 111V105.24H354.636V111H356.636ZM355.636 104.24H346.996V106.24H355.636V104.24ZM347.703 104.533L344.823 101.653L343.409 103.067L346.289 105.947L347.703 104.533ZM345.116 102.36V62.04H343.116V102.36H345.116ZM345.116 62.04C345.116 53.4555 342.914 46.6935 338.542 42.0746C334.162 37.4468 327.745 35.12 319.636 35.12V37.12C327.366 37.12 333.19 39.3292 337.089 43.4494C340.998 47.5785 343.116 53.7765 343.116 62.04H345.116ZM319.636 35.12C307.969 35.12 298.56 39.8608 292.879 48.532L294.552 49.628C299.815 41.5952 308.55 37.12 319.636 37.12V35.12ZM293.716 48.08H292.276V50.08H293.716V48.08ZM293.276 49.08V36.12H291.276V49.08H293.276ZM291.828 35.2256C284.751 38.7644 276.263 40.88 269.236 40.88V42.88C276.608 42.88 285.401 40.6756 292.723 37.0144L291.828 35.2256ZM268.236 41.88V47.64H270.236V41.88H268.236ZM269.236 48.64H280.756V46.64H269.236V48.64ZM279.756 47.64V102.36H281.756V47.64H279.756ZM280.049 101.653L277.169 104.533L278.583 105.947L281.463 103.067L280.049 101.653ZM277.876 104.24H269.236V106.24H277.876V104.24ZM268.236 105.24V111H270.236V105.24H268.236ZM297.303 104.533L294.423 101.653L293.009 103.067L295.889 105.947L297.303 104.533ZM294.716 102.36V69.24H292.716V102.36H294.716ZM294.716 69.24C294.716 61.4659 296.589 55.6171 300.027 51.7217C303.448 47.8466 308.545 45.76 315.316 45.76V43.76C308.119 43.76 302.416 45.9934 298.528 50.3983C294.658 54.783 292.716 61.1741 292.716 69.24H294.716ZM315.316 45.76C320.177 45.76 323.824 47.4242 326.284 50.5451C328.775 53.7043 330.156 58.4901 330.156 64.92H332.156C332.156 58.2459 330.728 52.9517 327.855 49.3069C324.951 45.6238 320.678 43.76 315.316 43.76V45.76ZM330.156 64.92V102.36H332.156V64.92H330.156ZM330.449 101.653L327.569 104.533L328.983 105.947L331.863 103.067L330.449 101.653ZM328.276 104.24H296.596V106.24H328.276V104.24ZM402.458 99.048V98.048H401.865L401.58 98.5691L402.458 99.048ZM403.898 99.048H404.898V98.048H403.898V99.048ZM403.898 111H402.898V112H403.898V111ZM426.938 111V112H427.938V111H426.938ZM426.938 105.24H427.938V104.24H426.938V105.24ZM418.298 105.24L417.591 105.947L417.884 106.24H418.298V105.24ZM415.418 102.36H414.418V102.774L414.711 103.067L415.418 102.36ZM360.698 57.72L361.697 57.7755L361.697 57.772L360.698 57.72ZM359.978 70.68L358.98 70.6245L358.889 72.2584L360.384 71.5938L359.978 70.68ZM372.938 64.92L373.344 65.8338L373.938 65.5699V64.92H372.938ZM402.458 69.24L402.698 70.2107L403.458 70.0226V69.24H402.458ZM387.338 72.984L387.578 73.9549L387.578 73.9547L387.338 72.984ZM402.458 75.72H403.458V74.4726L402.241 74.7439L402.458 75.72ZM378.554 113.44C390.436 113.44 398.839 107.772 403.336 99.5268L401.58 98.5691C397.437 106.164 389.712 111.44 378.554 111.44V113.44ZM402.458 100.048H403.898V98.048H402.458V100.048ZM402.898 99.048V111H404.898V99.048H402.898ZM403.898 112H426.938V110H403.898V112ZM427.938 111V105.24H425.938V111H427.938ZM426.938 104.24H418.298V106.24H426.938V104.24ZM419.005 104.533L416.125 101.653L414.711 103.067L417.591 105.947L419.005 104.533ZM416.418 102.36V59.16H414.418V102.36H416.418ZM416.418 59.16C416.418 51.5055 413.844 45.4396 408.875 41.3091C403.936 37.2023 396.764 35.12 387.77 35.12V37.12C396.488 37.12 403.14 39.1417 407.597 42.8469C412.025 46.5284 414.418 51.9825 414.418 59.16H416.418ZM387.77 35.12C379.346 35.12 372.511 37.0969 367.671 40.9539C362.807 44.8299 360.072 50.5138 359.699 57.668L361.697 57.772C362.044 51.1022 364.565 45.9861 368.917 42.5181C373.293 39.0311 379.634 37.12 387.77 37.12V35.12ZM359.7 57.6645L358.98 70.6245L360.977 70.7355L361.697 57.7755L359.7 57.6645ZM360.384 71.5938L373.344 65.8338L372.532 64.0062L359.572 69.7662L360.384 71.5938ZM373.938 64.92V54.84H371.938V64.92H373.938ZM373.938 54.84C373.938 50.8856 375.191 47.9442 377.416 45.9772C379.66 43.9936 383.029 42.88 387.482 42.88V40.88C382.72 40.88 378.816 42.0704 376.092 44.4788C373.349 46.9038 371.938 50.4424 371.938 54.84H373.938ZM387.482 42.88C392.158 42.88 395.595 44.3495 397.884 47.0136C400.193 49.7026 401.458 53.7552 401.458 59.16H403.458C403.458 53.4768 402.131 48.8894 399.401 45.7104C396.649 42.5065 392.599 40.88 387.482 40.88V42.88ZM401.458 59.16V69.24H403.458V59.16H401.458ZM402.218 68.2693L387.098 72.0133L387.578 73.9547L402.698 70.2107L402.218 68.2693ZM387.098 72.0131C375.702 74.8262 367.793 77.8157 362.726 81.616C360.176 83.5287 358.326 85.6602 357.12 88.0916C355.914 90.5228 355.378 93.2005 355.378 96.168H357.378C357.378 93.4475 357.868 91.0852 358.912 88.9804C359.956 86.8758 361.58 84.9753 363.926 83.216C368.651 79.6723 376.222 76.7578 387.578 73.9549L387.098 72.0131ZM355.378 96.168C355.378 101.707 357.483 106.09 361.529 109.053C365.529 111.981 371.314 113.44 378.554 113.44V111.44C371.538 111.44 366.235 110.019 362.711 107.439C359.234 104.894 357.378 101.141 357.378 96.168H355.378ZM381.866 104.24C378.191 104.24 375.508 103.372 373.754 101.856C372.025 100.36 371.058 98.1088 371.058 95.016H369.058C369.058 98.5472 370.18 101.408 372.446 103.368C374.689 105.308 377.909 106.24 381.866 106.24V104.24ZM371.058 95.016C371.058 92.9546 371.545 91.1584 372.599 89.5264C373.661 87.8818 375.338 86.3458 377.806 84.8774C382.769 81.9239 390.73 79.3586 402.676 76.696L402.241 74.7439C390.282 77.4094 382.044 80.0281 376.783 83.1586C374.139 84.7322 372.197 86.4632 370.919 88.4411C369.633 90.4316 369.058 92.6134 369.058 95.016H371.058ZM401.458 75.72V77.88H403.458V75.72H401.458ZM401.458 77.88C401.458 85.1229 399.452 91.7488 395.995 96.5366C392.549 101.31 387.682 104.24 381.866 104.24V106.24C388.434 106.24 393.863 102.906 397.617 97.7074C401.36 92.5232 403.458 85.4691 403.458 77.88H401.458ZM426.263 111H425.263V112H426.263V111ZM462.263 111V112H463.263V111H462.263ZM462.263 105.24H463.263V104.24H462.263V105.24ZM453.623 105.24L452.916 105.947L453.209 106.24H453.623V105.24ZM450.743 102.36H449.743V102.774L450.036 103.067L450.743 102.36ZM450.743 0.119995H451.743V-1.49804L450.296 -0.774433L450.743 0.119995ZM426.263 5.88V4.88H425.263V5.88H426.263ZM426.263 11.64H425.263V12.64H426.263V11.64ZM437.783 11.64H438.783V10.64H437.783V11.64ZM437.783 102.36L438.49 103.067L438.783 102.774V102.36H437.783ZM434.903 105.24V106.24H435.317L435.61 105.947L434.903 105.24ZM426.263 105.24V104.24H425.263V105.24H426.263ZM426.263 112H462.263V110H426.263V112ZM463.263 111V105.24H461.263V111H463.263ZM462.263 104.24H453.623V106.24H462.263V104.24ZM454.33 104.533L451.45 101.653L450.036 103.067L452.916 105.947L454.33 104.533ZM451.743 102.36V0.119995H449.743V102.36H451.743ZM450.296 -0.774433C443.236 2.75554 434.173 4.88 426.263 4.88V6.88C434.481 6.88 443.85 4.68444 451.19 1.01442L450.296 -0.774433ZM425.263 5.88V11.64H427.263V5.88H425.263ZM426.263 12.64H437.783V10.64H426.263V12.64ZM436.783 11.64V102.36H438.783V11.64H436.783ZM437.076 101.653L434.196 104.533L435.61 105.947L438.49 103.067L437.076 101.653ZM434.903 104.24H426.263V106.24H434.903V104.24ZM425.263 105.24V111H427.263V105.24H425.263ZM495.209 111H494.209V112H495.209V111ZM547.049 111V112H548.049V111H547.049ZM547.049 105.24H548.049V104.24H547.049V105.24ZM526.889 105.24L526.182 105.947L526.475 106.24H526.889V105.24ZM524.009 102.36H523.009V102.774L523.302 103.067L524.009 102.36ZM524.009 44.76V43.76H523.009V44.76H524.009ZM547.049 44.76V45.76H548.049V44.76H547.049ZM547.049 39H548.049V38H547.049V39ZM524.009 39H523.009V40H524.009V39ZM524.009 17.4L523.302 16.6929L523.009 16.9858V17.4H524.009ZM526.889 14.52V13.52H526.475L526.182 13.8129L526.889 14.52ZM551.369 14.52V15.52H552.189L552.349 14.7161L551.369 14.52ZM554.249 0.119995L555.229 0.316111L555.484 -0.959185L554.186 -0.878057L554.249 0.119995ZM542.729 0.839993L542.776 1.83886L542.784 1.83851L542.791 1.83805L542.729 0.839993ZM524.009 10.2L523.302 9.49289L524.009 10.2ZM511.049 23.16L510.342 22.4529L510.049 22.7458V23.16H511.049ZM511.049 39V40H512.049V39H511.049ZM495.209 39V38H494.209V39H495.209ZM495.209 44.76H494.209V45.76H495.209V44.76ZM511.049 44.76H512.049V43.76H511.049V44.76ZM511.049 102.36L511.756 103.067L512.049 102.774V102.36H511.049ZM508.169 105.24V106.24H508.583L508.876 105.947L508.169 105.24ZM495.209 105.24V104.24H494.209V105.24H495.209ZM495.209 112H547.049V110H495.209V112ZM548.049 111V105.24H546.049V111H548.049ZM547.049 104.24H526.889V106.24H547.049V104.24ZM527.596 104.533L524.716 101.653L523.302 103.067L526.182 105.947L527.596 104.533ZM525.009 102.36V44.76H523.009V102.36H525.009ZM524.009 45.76H547.049V43.76H524.009V45.76ZM548.049 44.76V39H546.049V44.76H548.049ZM547.049 38H524.009V40H547.049V38ZM525.009 39V17.4H523.009V39H525.009ZM524.716 18.1071L527.596 15.2271L526.182 13.8129L523.302 16.6929L524.716 18.1071ZM526.889 15.52H551.369V13.52H526.889V15.52ZM552.349 14.7161L555.229 0.316111L553.268 -0.0761223L550.388 14.3239L552.349 14.7161ZM554.186 -0.878057L542.666 -0.158058L542.791 1.83805L554.311 1.11805L554.186 -0.878057ZM542.681 -0.158875C536.321 0.143972 528.899 3.89554 523.302 9.49289L524.716 10.9071C530.062 5.56045 537.04 2.11202 542.776 1.83886L542.681 -0.158875ZM523.302 9.49289L510.342 22.4529L511.756 23.8671L524.716 10.9071L523.302 9.49289ZM510.049 23.16V39H512.049V23.16H510.049ZM511.049 38H495.209V40H511.049V38ZM494.209 39V44.76H496.209V39H494.209ZM495.209 45.76H511.049V43.76H495.209V45.76ZM510.049 44.76V102.36H512.049V44.76H510.049ZM510.342 101.653L507.462 104.533L508.876 105.947L511.756 103.067L510.342 101.653ZM508.169 104.24H495.209V106.24H508.169V104.24ZM494.209 105.24V111H496.209V105.24H494.209ZM581.592 113.44C593.049 113.44 602.679 109.653 609.447 102.811C616.214 95.9699 620.032 86.1616 620.032 74.28H618.032C618.032 85.7264 614.362 94.9981 608.025 101.405C601.689 107.811 592.599 111.44 581.592 111.44V113.44ZM620.032 74.28C620.032 62.3984 616.214 52.5901 609.447 45.7488C602.679 38.9068 593.049 35.12 581.592 35.12V37.12C592.599 37.12 601.689 40.7492 608.025 47.1552C614.362 53.5619 618.032 62.8336 618.032 74.28H620.032ZM581.592 35.12C570.135 35.12 560.505 38.9068 553.737 45.7488C546.97 52.5901 543.152 62.3984 543.152 74.28H545.152C545.152 62.8336 548.822 53.5619 555.159 47.1552C561.495 40.7492 570.585 37.12 581.592 37.12V35.12ZM543.152 74.28C543.152 86.1616 546.97 95.9699 553.737 102.811C560.505 109.653 570.135 113.44 581.592 113.44V111.44C570.585 111.44 561.495 107.811 555.159 101.405C548.822 94.9981 545.152 85.7264 545.152 74.28H543.152ZM581.592 104.96C574.527 104.96 569.083 102.345 565.369 97.303C561.621 92.2138 559.552 84.5364 559.552 74.28H557.552C557.552 84.7596 559.659 92.9222 563.759 98.489C567.893 104.103 573.969 106.96 581.592 106.96V104.96ZM559.552 74.28C559.552 64.0236 561.621 56.3462 565.369 51.257C569.083 46.2147 574.527 43.6 581.592 43.6V41.6C573.969 41.6 567.893 44.4573 563.759 50.071C559.659 55.6378 557.552 63.8004 557.552 74.28H559.552ZM581.592 43.6C588.657 43.6 594.101 46.2147 597.815 51.257C601.563 56.3462 603.632 64.0236 603.632 74.28H605.632C605.632 63.8004 603.525 55.6378 599.425 50.071C595.291 44.4573 589.215 41.6 581.592 41.6V43.6ZM603.632 74.28C603.632 84.5364 601.563 92.2138 597.815 97.303C594.101 102.345 588.657 104.96 581.592 104.96V106.96C589.215 106.96 595.291 104.103 599.425 98.489C603.525 92.9222 605.632 84.7596 605.632 74.28H603.632ZM621.209 111H620.209V112H621.209V111ZM671.609 111V112H672.609V111H671.609ZM671.609 105.24H672.609V104.24H671.609V105.24ZM648.569 105.24L647.862 105.947L648.155 106.24H648.569V105.24ZM645.689 102.36H644.689V102.774L644.982 103.067L645.689 102.36ZM675.929 50.52V51.52H676.749L676.909 50.7161L675.929 50.52ZM678.809 36.12L679.789 36.3161L680.044 35.0408L678.746 35.1219L678.809 36.12ZM667.289 36.84L667.349 37.8382L667.351 37.838L667.289 36.84ZM645.689 54.84V55.84H646.385L646.627 55.1869L645.689 54.84ZM644.249 54.84H643.249V55.84H644.249V54.84ZM644.249 36.12H645.249V34.502L643.802 35.2256L644.249 36.12ZM621.209 41.88V40.88H620.209V41.88H621.209ZM621.209 47.64H620.209V48.64H621.209V47.64ZM632.729 47.64H633.729V46.64H632.729V47.64ZM632.729 102.36L633.436 103.067L633.729 102.774V102.36H632.729ZM629.849 105.24V106.24H630.263L630.556 105.947L629.849 105.24ZM621.209 105.24V104.24H620.209V105.24H621.209ZM621.209 112H671.609V110H621.209V112ZM672.609 111V105.24H670.609V111H672.609ZM671.609 104.24H648.569V106.24H671.609V104.24ZM649.276 104.533L646.396 101.653L644.982 103.067L647.862 105.947L649.276 104.533ZM646.689 102.36V73.56H644.689V102.36H646.689ZM646.689 73.56C646.689 66.5847 648.416 61.0718 651.452 57.3234C654.467 53.6005 658.851 51.52 664.409 51.52V49.52C658.303 49.52 653.326 51.8315 649.898 56.0646C646.49 60.2722 644.689 66.2793 644.689 73.56H646.689ZM664.409 51.52H675.929V49.52H664.409V51.52ZM676.909 50.7161L679.789 36.3161L677.828 35.9239L674.948 50.3239L676.909 50.7161ZM678.746 35.1219L667.226 35.8419L667.351 37.838L678.871 37.118L678.746 35.1219ZM667.228 35.8418C657.241 36.4471 648.743 43.6991 644.751 54.4931L646.627 55.1869C650.41 44.9569 658.328 38.3849 667.349 37.8382L667.228 35.8418ZM645.689 53.84H644.249V55.84H645.689V53.84ZM645.249 54.84V36.12H643.249V54.84H645.249ZM643.802 35.2256C636.724 38.7644 628.236 40.88 621.209 40.88V42.88C628.582 42.88 637.374 40.6756 644.696 37.0144L643.802 35.2256ZM620.209 41.88V47.64H622.209V41.88H620.209ZM621.209 48.64H632.729V46.64H621.209V48.64ZM631.729 47.64V102.36H633.729V47.64H631.729ZM632.022 101.653L629.142 104.533L630.556 105.947L633.436 103.067L632.022 101.653ZM629.849 104.24H621.209V106.24H629.849V104.24ZM620.209 105.24V111H622.209V105.24H620.209ZM46.84 261L45.8987 261.338L46.1363 262H46.84V261ZM53.32 261V262H54.0162L54.2578 261.347L53.32 261ZM71.176 212.76V211.76H70.4798L70.2382 212.413L71.176 212.76ZM72.616 212.76L73.561 212.433L73.328 211.76H72.616V212.76ZM89.32 261L88.3751 261.327L88.608 262H89.32V261ZM96.52 261V262H97.2165L97.458 261.347L96.52 261ZM121 194.76V193.76H120.303L120.062 194.413L121 194.76ZM129.64 194.76V195.76H130.64V194.76H129.64ZM129.64 189H130.64V188H129.64V189ZM14.44 189V188H13.44V189H14.44ZM14.44 194.76H13.44V195.76H14.44V194.76ZM23.08 194.76L24.0213 194.422L23.7837 193.76H23.08V194.76ZM52.744 241.272L51.8001 241.602L52.0344 242.272H52.744V241.272ZM37.48 197.64L36.7729 196.933L36.3286 197.377L36.5361 197.97L37.48 197.64ZM40.36 194.76V193.76H39.9458L39.6529 194.053L40.36 194.76ZM71.896 194.76L72.8305 195.116L73.3469 193.76H71.896V194.76ZM54.184 241.272V242.272H54.8732L55.1185 241.628L54.184 241.272ZM95.8 241.272L94.8636 241.623L95.1068 242.272H95.8V241.272ZM78.376 194.76V193.76H76.9335L77.4396 195.111L78.376 194.76ZM110.488 194.76L111.195 194.053L110.902 193.76H110.488V194.76ZM113.368 197.64L114.306 197.987L114.528 197.386L114.075 196.933L113.368 197.64ZM97.24 241.272V242.272H97.9365L98.178 241.619L97.24 241.272ZM46.84 262H53.32V260H46.84V262ZM54.2578 261.347L72.1138 213.107L70.2382 212.413L52.3822 260.653L54.2578 261.347ZM71.176 213.76H72.616V211.76H71.176V213.76ZM71.6711 213.087L88.3751 261.327L90.265 260.673L73.561 212.433L71.6711 213.087ZM89.32 262H96.52V260H89.32V262ZM97.458 261.347L121.938 195.107L120.062 194.413L95.582 260.653L97.458 261.347ZM121 195.76H129.64V193.76H121V195.76ZM130.64 194.76V189H128.64V194.76H130.64ZM129.64 188H14.44V190H129.64V188ZM13.44 189V194.76H15.44V189H13.44ZM14.44 195.76H23.08V193.76H14.44V195.76ZM22.1387 195.098L45.8987 261.338L47.7813 260.662L24.0213 194.422L22.1387 195.098ZM53.6879 240.942L38.4239 197.31L36.5361 197.97L51.8001 241.602L53.6879 240.942ZM38.1871 198.347L41.0671 195.467L39.6529 194.053L36.7729 196.933L38.1871 198.347ZM40.36 195.76H71.896V193.76H40.36V195.76ZM70.9615 194.404L53.2495 240.916L55.1185 241.628L72.8305 195.116L70.9615 194.404ZM54.184 240.272H52.744V242.272H54.184V240.272ZM96.7365 240.921L79.3125 194.409L77.4396 195.111L94.8636 241.623L96.7365 240.921ZM78.376 195.76H110.488V193.76H78.376V195.76ZM109.781 195.467L112.661 198.347L114.075 196.933L111.195 194.053L109.781 195.467ZM112.43 197.293L96.302 240.925L98.178 241.619L114.306 197.987L112.43 197.293ZM97.24 240.272H95.8V242.272H97.24V240.272ZM126.085 261H125.085V262H126.085V261ZM176.485 261V262H177.485V261H176.485ZM176.485 255.24H177.485V254.24H176.485V255.24ZM153.445 255.24L152.738 255.947L153.031 256.24H153.445V255.24ZM150.565 252.36H149.565V252.774L149.858 253.067L150.565 252.36ZM180.805 200.52V201.52H181.625L181.786 200.716L180.805 200.52ZM183.685 186.12L184.666 186.316L184.921 185.041L183.623 185.122L183.685 186.12ZM172.165 186.84L172.225 187.838L172.227 187.838L172.165 186.84ZM150.565 204.84V205.84H151.261L151.503 205.187L150.565 204.84ZM149.125 204.84H148.125V205.84H149.125V204.84ZM149.125 186.12H150.125V184.502L148.678 185.226L149.125 186.12ZM126.085 191.88V190.88H125.085V191.88H126.085ZM126.085 197.64H125.085V198.64H126.085V197.64ZM137.605 197.64H138.605V196.64H137.605V197.64ZM137.605 252.36L138.312 253.067L138.605 252.774V252.36H137.605ZM134.725 255.24V256.24H135.139L135.432 255.947L134.725 255.24ZM126.085 255.24V254.24H125.085V255.24H126.085ZM126.085 262H176.485V260H126.085V262ZM177.485 261V255.24H175.485V261H177.485ZM176.485 254.24H153.445V256.24H176.485V254.24ZM154.152 254.533L151.272 251.653L149.858 253.067L152.738 255.947L154.152 254.533ZM151.565 252.36V223.56H149.565V252.36H151.565ZM151.565 223.56C151.565 216.585 153.292 211.072 156.328 207.323C159.343 203.601 163.727 201.52 169.285 201.52V199.52C163.179 199.52 158.203 201.831 154.774 206.065C151.366 210.272 149.565 216.279 149.565 223.56H151.565ZM169.285 201.52H180.805V199.52H169.285V201.52ZM181.786 200.716L184.666 186.316L182.704 185.924L179.824 200.324L181.786 200.716ZM183.623 185.122L172.103 185.842L172.227 187.838L183.747 187.118L183.623 185.122ZM172.105 185.842C162.117 186.447 153.619 193.699 149.627 204.493L151.503 205.187C155.287 194.957 163.205 188.385 172.225 187.838L172.105 185.842ZM150.565 203.84H149.125V205.84H150.565V203.84ZM150.125 204.84V186.12H148.125V204.84H150.125ZM148.678 185.226C141.6 188.764 133.112 190.88 126.085 190.88V192.88C133.458 192.88 142.25 190.676 149.572 187.014L148.678 185.226ZM125.085 191.88V197.64H127.085V191.88H125.085ZM126.085 198.64H137.605V196.64H126.085V198.64ZM136.605 197.64V252.36H138.605V197.64H136.605ZM136.898 251.653L134.018 254.533L135.432 255.947L138.312 253.067L136.898 251.653ZM134.725 254.24H126.085V256.24H134.725V254.24ZM125.085 255.24V261H127.085V255.24H125.085ZM190.879 170.28H189.879V171.28H190.879V170.28ZM208.159 170.28V171.28H209.159V170.28H208.159ZM208.159 153H209.159V152H208.159V153ZM190.879 153V152H189.879V153H190.879ZM182.239 261H181.239V262H182.239V261ZM218.239 261V262H219.239V261H218.239ZM218.239 255.24H219.239V254.24H218.239V255.24ZM209.599 255.24L208.892 255.947L209.185 256.24H209.599V255.24ZM206.719 252.36H205.719V252.774L206.012 253.067L206.719 252.36ZM206.719 186.12H207.719V184.502L206.272 185.226L206.719 186.12ZM182.239 191.88V190.88H181.239V191.88H182.239ZM182.239 197.64H181.239V198.64H182.239V197.64ZM193.759 197.64H194.759V196.64H193.759V197.64ZM193.759 252.36L194.466 253.067L194.759 252.774V252.36H193.759ZM190.879 255.24V256.24H191.294L191.586 255.947L190.879 255.24ZM182.239 255.24V254.24H181.239V255.24H182.239ZM190.879 171.28H208.159V169.28H190.879V171.28ZM209.159 170.28V153H207.159V170.28H209.159ZM208.159 152H190.879V154H208.159V152ZM189.879 153V170.28H191.879V153H189.879ZM182.239 262H218.239V260H182.239V262ZM219.239 261V255.24H217.239V261H219.239ZM218.239 254.24H209.599V256.24H218.239V254.24ZM210.306 254.533L207.426 251.653L206.012 253.067L208.892 255.947L210.306 254.533ZM207.719 252.36V186.12H205.719V252.36H207.719ZM206.272 185.226C199.212 188.756 190.149 190.88 182.239 190.88V192.88C190.457 192.88 199.827 190.684 207.167 187.014L206.272 185.226ZM181.239 191.88V197.64H183.239V191.88H181.239ZM182.239 198.64H193.759V196.64H182.239V198.64ZM192.759 197.64V252.36H194.759V197.64H192.759ZM193.052 251.653L190.172 254.533L191.586 255.947L194.466 253.067L193.052 251.653ZM190.879 254.24H182.239V256.24H190.879V254.24ZM181.239 255.24V261H183.239V255.24H181.239ZM266.417 229.32H267.417V228.377L266.476 228.322L266.417 229.32ZM261.521 229.032L261.58 228.034L260.53 227.972L260.522 229.024L261.521 229.032ZM239.057 194.76V193.76H238.057V194.76H239.057ZM262.098 194.76V195.76H263.098V194.76H262.098ZM262.098 189H263.098V188H262.098V189ZM239.057 189H238.057V190H239.057V189ZM239.057 164.52H240.057V163.52H239.057V164.52ZM236.177 164.52V163.52H235.351L235.195 164.331L236.177 164.52ZM213.137 191.88L212.815 190.933L212.137 191.164V191.88H213.137ZM213.137 194.76H212.137V195.76H213.137V194.76ZM226.097 194.76H227.097V193.76H226.097V194.76ZM244.673 263.44C252.544 263.44 258.315 260.339 262.061 254.406C265.757 248.553 267.417 240.046 267.417 229.32H265.417C265.417 239.906 263.766 247.959 260.37 253.338C257.024 258.637 251.923 261.44 244.673 261.44V263.44ZM266.476 228.322L261.58 228.034L261.463 230.03L266.359 230.318L266.476 228.322ZM260.522 229.024C260.45 238.079 258.879 244.432 256.484 248.485C254.115 252.497 250.961 254.24 247.553 254.24V256.24C251.778 256.24 255.536 254.023 258.206 249.503C260.852 245.025 262.449 238.273 262.521 229.04L260.522 229.024ZM247.553 254.24C245.309 254.24 243.469 253.383 242.175 251.872C240.87 250.347 240.057 248.075 240.057 245.16H238.057C238.057 248.437 238.973 251.205 240.656 253.172C242.35 255.153 244.758 256.24 247.553 256.24V254.24ZM240.057 245.16V194.76H238.057V245.16H240.057ZM239.057 195.76H262.098V193.76H239.057V195.76ZM263.098 194.76V189H261.098V194.76H263.098ZM262.098 188H239.057V190H262.098V188ZM240.057 189V164.52H238.057V189H240.057ZM239.057 163.52H236.177V165.52H239.057V163.52ZM235.195 164.331C233.78 171.693 231.247 177.279 227.572 181.543C223.898 185.806 219.025 188.816 212.815 190.933L213.46 192.827C219.922 190.623 225.129 187.442 229.087 182.849C233.044 178.257 235.695 172.323 237.16 164.709L235.195 164.331ZM212.137 191.88V194.76H214.137V191.88H212.137ZM213.137 195.76H226.097V193.76H213.137V195.76ZM225.097 194.76V245.16H227.097V194.76H225.097ZM225.097 245.16C225.097 250.723 226.984 255.324 230.44 258.529C233.887 261.726 238.794 263.44 244.673 263.44V261.44C239.177 261.44 234.796 259.842 231.799 257.063C228.811 254.292 227.097 250.253 227.097 245.16H225.097ZM272.954 170.28H271.954V171.28H272.954V170.28ZM290.234 170.28V171.28H291.234V170.28H290.234ZM290.234 153H291.234V152H290.234V153ZM272.954 153V152H271.954V153H272.954ZM264.314 261H263.314V262H264.314V261ZM300.314 261V262H301.314V261H300.314ZM300.314 255.24H301.314V254.24H300.314V255.24ZM291.674 255.24L290.967 255.947L291.26 256.24H291.674V255.24ZM288.794 252.36H287.794V252.774L288.087 253.067L288.794 252.36ZM288.794 186.12H289.794V184.502L288.347 185.226L288.794 186.12ZM264.314 191.88V190.88H263.314V191.88H264.314ZM264.314 197.64H263.314V198.64H264.314V197.64ZM275.834 197.64H276.834V196.64H275.834V197.64ZM275.834 252.36L276.541 253.067L276.834 252.774V252.36H275.834ZM272.954 255.24V256.24H273.368L273.661 255.947L272.954 255.24ZM264.314 255.24V254.24H263.314V255.24H264.314ZM272.954 171.28H290.234V169.28H272.954V171.28ZM291.234 170.28V153H289.234V170.28H291.234ZM290.234 152H272.954V154H290.234V152ZM271.954 153V170.28H273.954V153H271.954ZM264.314 262H300.314V260H264.314V262ZM301.314 261V255.24H299.314V261H301.314ZM300.314 254.24H291.674V256.24H300.314V254.24ZM292.381 254.533L289.501 251.653L288.087 253.067L290.967 255.947L292.381 254.533ZM289.794 252.36V186.12H287.794V252.36H289.794ZM288.347 185.226C281.287 188.756 272.224 190.88 264.314 190.88V192.88C272.532 192.88 281.901 190.684 289.241 187.014L288.347 185.226ZM263.314 191.88V197.64H265.314V191.88H263.314ZM264.314 198.64H275.834V196.64H264.314V198.64ZM274.834 197.64V252.36H276.834V197.64H274.834ZM275.127 251.653L272.247 254.533L273.661 255.947L276.541 253.067L275.127 251.653ZM272.954 254.24H264.314V256.24H272.954V254.24ZM263.314 255.24V261H265.314V255.24H263.314ZM298.812 261H297.812V262H298.812V261ZM385.212 261V262H386.212V261H385.212ZM385.212 255.24H386.212V254.24H385.212V255.24ZM376.572 255.24L375.865 255.947L376.158 256.24H376.572V255.24ZM373.692 252.36H372.692V252.774L372.985 253.067L373.692 252.36ZM323.292 199.08V200.08H323.832L324.128 199.628L323.292 199.08ZM321.852 199.08H320.852V200.08H321.852V199.08ZM321.852 186.12H322.852V184.502L321.405 185.226L321.852 186.12ZM298.812 191.88V190.88H297.812V191.88H298.812ZM298.812 197.64H297.812V198.64H298.812V197.64ZM310.332 197.64H311.332V196.64H310.332V197.64ZM310.332 252.36L311.039 253.067L311.332 252.774V252.36H310.332ZM307.452 255.24V256.24H307.866L308.159 255.947L307.452 255.24ZM298.812 255.24V254.24H297.812V255.24H298.812ZM326.172 255.24L325.465 255.947L325.758 256.24H326.172V255.24ZM323.292 252.36H322.292V252.774L322.585 253.067L323.292 252.36ZM360.732 252.36L361.439 253.067L361.732 252.774V252.36H360.732ZM357.852 255.24V256.24H358.266L358.559 255.947L357.852 255.24ZM298.812 262H385.212V260H298.812V262ZM386.212 261V255.24H384.212V261H386.212ZM385.212 254.24H376.572V256.24H385.212V254.24ZM377.279 254.533L374.399 251.653L372.985 253.067L375.865 255.947L377.279 254.533ZM374.692 252.36V212.04H372.692V252.36H374.692ZM374.692 212.04C374.692 203.456 372.49 196.694 368.118 192.075C363.738 187.447 357.322 185.12 349.212 185.12V187.12C356.942 187.12 362.766 189.329 366.666 193.449C370.574 197.578 372.692 203.776 372.692 212.04H374.692ZM349.212 185.12C337.546 185.12 328.137 189.861 322.455 198.532L324.128 199.628C329.391 191.595 338.126 187.12 349.212 187.12V185.12ZM323.292 198.08H321.852V200.08H323.292V198.08ZM322.852 199.08V186.12H320.852V199.08H322.852ZM321.405 185.226C314.327 188.764 305.839 190.88 298.812 190.88V192.88C306.185 192.88 314.977 190.676 322.299 187.014L321.405 185.226ZM297.812 191.88V197.64H299.812V191.88H297.812ZM298.812 198.64H310.332V196.64H298.812V198.64ZM309.332 197.64V252.36H311.332V197.64H309.332ZM309.625 251.653L306.745 254.533L308.159 255.947L311.039 253.067L309.625 251.653ZM307.452 254.24H298.812V256.24H307.452V254.24ZM297.812 255.24V261H299.812V255.24H297.812ZM326.879 254.533L323.999 251.653L322.585 253.067L325.465 255.947L326.879 254.533ZM324.292 252.36V219.24H322.292V252.36H324.292ZM324.292 219.24C324.292 211.466 326.166 205.617 329.604 201.722C333.024 197.847 338.121 195.76 344.892 195.76V193.76C337.695 193.76 331.992 195.993 328.104 200.398C324.234 204.783 322.292 211.174 322.292 219.24H324.292ZM344.892 195.76C349.753 195.76 353.4 197.424 355.861 200.545C358.351 203.704 359.732 208.49 359.732 214.92H361.732C361.732 208.246 360.305 202.952 357.431 199.307C354.528 195.624 350.254 193.76 344.892 193.76V195.76ZM359.732 214.92V252.36H361.732V214.92H359.732ZM360.025 251.653L357.145 254.533L358.559 255.947L361.439 253.067L360.025 251.653ZM357.852 254.24H326.172V256.24H357.852V254.24ZM426.562 249.768L426.456 250.762L426.458 250.763L426.562 249.768ZM414.466 248.472L414.354 249.466L414.36 249.466L414.466 248.472ZM401.794 239.4L401.7 238.405L400.656 238.504L400.804 239.541L401.794 239.4ZM416.914 237.96L416.824 236.964L416.82 236.965L416.914 237.96ZM441.106 199.368L440.399 198.661L439.873 199.187L440.226 199.842L441.106 199.368ZM442.834 197.64V196.64H442.42L442.127 196.933L442.834 197.64ZM457.954 197.64V198.64H458.801L458.941 197.804L457.954 197.64ZM460.114 184.68L461.101 184.844L461.309 183.592L460.043 183.683L460.114 184.68ZM450.034 185.4L450.087 186.399L450.096 186.398L450.106 186.397L450.034 185.4ZM437.65 194.616L436.914 195.293L437.968 196.439L438.572 195.004L437.65 194.616ZM403.954 233.64H404.954V232.934L404.29 232.698L403.954 233.64ZM403.954 235.08L404.05 236.075L404.954 235.988V235.08H403.954ZM388.978 236.52L388.883 235.525L387.978 235.612V236.52H388.978ZM411.298 259.992L411.181 260.985L411.183 260.985L411.298 259.992ZM423.682 261.432L423.567 262.425L423.682 261.432ZM398.194 265.32H399.194V264.5L398.39 264.339L398.194 265.32ZM383.794 262.44L383.99 261.459L382.715 261.204L382.796 262.502L383.794 262.44ZM384.514 273.96L383.516 274.022L383.517 274.029L384.514 273.96ZM418.642 298C429.646 298 438.626 295.561 444.883 290.985C451.176 286.383 454.634 279.672 454.634 271.368H452.634C452.634 279.048 449.469 285.153 443.702 289.371C437.899 293.615 429.383 296 418.642 296V298ZM454.634 271.368C454.634 265.635 452.586 260.453 447.99 256.465C443.424 252.503 436.431 249.794 426.666 248.773L426.458 250.763C435.989 251.758 442.533 254.378 446.679 257.975C450.795 261.547 452.634 266.157 452.634 271.368H454.634ZM426.669 248.774L414.573 247.478L414.36 249.466L426.456 250.762L426.669 248.774ZM414.579 247.478C410.187 246.983 407.413 246.005 405.663 244.656C403.959 243.343 403.118 241.594 402.784 239.259L400.804 239.541C401.191 242.246 402.222 244.529 404.442 246.24C406.616 247.915 409.817 248.953 414.354 249.466L414.579 247.478ZM401.889 240.396L417.009 238.955L416.82 236.965L401.7 238.405L401.889 240.396ZM417.005 238.956C425.826 238.154 432.912 235.773 437.799 231.358C442.718 226.914 445.274 220.533 445.274 212.04H443.274C443.274 220.107 440.863 225.894 436.458 229.874C432.021 233.883 425.427 236.182 416.824 236.964L417.005 238.956ZM445.274 212.04C445.274 207.117 444.079 202.779 441.987 198.894L440.226 199.842C442.166 203.445 443.274 207.459 443.274 212.04H445.274ZM441.813 200.075L443.541 198.347L442.127 196.933L440.399 198.661L441.813 200.075ZM442.834 198.64H457.954V196.64H442.834V198.64ZM458.941 197.804L461.101 184.844L459.128 184.516L456.968 197.476L458.941 197.804ZM460.043 183.683L449.963 184.403L450.106 186.397L460.186 185.677L460.043 183.683ZM449.982 184.401C444.083 184.712 439.164 188.445 436.729 194.228L438.572 195.004C440.745 189.843 445.041 186.664 450.087 186.399L449.982 184.401ZM438.387 193.939C433.282 188.384 425.66 185.12 416.914 185.12V187.12C425.16 187.12 432.227 190.192 436.914 195.293L438.387 193.939ZM416.914 185.12C400.861 185.12 388.554 196.751 388.554 212.04H390.554C390.554 197.953 401.864 187.12 416.914 187.12V185.12ZM388.554 212.04C388.554 222.065 394.683 231.402 403.619 234.582L404.29 232.698C396.234 229.831 390.554 221.311 390.554 212.04H388.554ZM402.954 233.64V235.08H404.954V233.64H402.954ZM403.859 234.085L388.883 235.525L389.074 237.515L404.05 236.075L403.859 234.085ZM387.978 236.52C387.978 244.485 389.62 250.199 393.484 254.14C397.327 258.06 403.191 260.041 411.181 260.985L411.416 258.999C403.566 258.071 398.269 256.164 394.912 252.74C391.577 249.337 389.978 244.251 389.978 236.52H387.978ZM411.183 260.985L423.567 262.425L423.798 260.439L411.414 258.999L411.183 260.985ZM423.567 262.425C429.634 263.131 434.033 264.918 436.896 267.343C439.735 269.748 441.114 272.818 441.114 276.264H443.114C443.114 272.222 441.47 268.596 438.189 265.817C434.932 263.058 430.114 261.173 423.798 260.439L423.567 262.425ZM441.114 276.264C441.114 280.453 439.24 283.893 435.649 286.326C432.02 288.786 426.588 290.24 419.506 290.24V292.24C426.825 292.24 432.697 290.742 436.771 287.982C440.885 285.195 443.114 281.147 443.114 276.264H441.114ZM419.506 290.24C412.769 290.24 407.668 288.96 404.281 286.668C400.947 284.412 399.194 281.127 399.194 276.84H397.194C397.194 281.769 399.258 285.684 403.16 288.324C407.009 290.928 412.564 292.24 419.506 292.24V290.24ZM399.194 276.84V265.32H397.194V276.84H399.194ZM398.39 264.339L383.99 261.459L383.598 263.421L397.998 266.301L398.39 264.339ZM382.796 262.502L383.516 274.022L385.512 273.898L384.792 262.378L382.796 262.502ZM383.517 274.029C384.042 281.612 387.627 287.651 393.73 291.763C399.798 295.853 408.296 298 418.642 298V296C408.541 296 400.478 293.899 394.847 290.105C389.25 286.333 385.994 280.852 385.512 273.891L383.517 274.029ZM416.914 231.2C412.84 231.2 409.736 229.553 407.608 226.418C405.443 223.23 404.234 218.418 404.234 212.04H402.234C402.234 218.622 403.474 223.89 405.953 227.542C408.469 231.247 412.205 233.2 416.914 233.2V231.2ZM404.234 212.04C404.234 205.662 405.443 200.85 407.608 197.662C409.736 194.527 412.84 192.88 416.914 192.88V190.88C412.205 190.88 408.469 192.833 405.953 196.538C403.474 200.19 402.234 205.458 402.234 212.04H404.234ZM416.914 192.88C420.989 192.88 424.093 194.527 426.221 197.662C428.386 200.85 429.594 205.662 429.594 212.04H431.594C431.594 205.458 430.355 200.19 427.876 196.538C425.36 192.833 421.624 190.88 416.914 190.88V192.88ZM429.594 212.04C429.594 218.418 428.386 223.23 426.221 226.418C424.093 229.553 420.989 231.2 416.914 231.2V233.2C421.624 233.2 425.36 231.247 427.876 227.542C430.355 223.89 431.594 218.622 431.594 212.04H429.594Z" fill="#B9BDC5"/>
</svg>
